{
	"patcher" : 	{
		"fileversion" : 1,
		"appversion" : 		{
			"major" : 5,
			"minor" : 1,
			"revision" : 9
		}
,
		"rect" : [ 21.0, 246.0, 946.0, 288.0 ],
		"bglocked" : 0,
		"defrect" : [ 21.0, 246.0, 946.0, 288.0 ],
		"openrect" : [ 0.0, 0.0, 0.0, 0.0 ],
		"openinpresentation" : 0,
		"default_fontsize" : 12.0,
		"default_fontface" : 0,
		"default_fontname" : "Arial",
		"gridonopen" : 0,
		"gridsize" : [ 15.0, 15.0 ],
		"gridsnaponopen" : 0,
		"toolbarvisible" : 1,
		"boxanimatetime" : 200,
		"imprint" : 0,
		"enablehscroll" : 1,
		"enablevscroll" : 1,
		"devicewidth" : 0.0,
		"boxes" : [ 			{
				"box" : 				{
					"maxclass" : "newobj",
					"text" : "textureParamsSplitter",
					"id" : "obj-1",
					"fontname" : "Arial",
					"numinlets" : 1,
					"patching_rect" : [ 205.0, 38.0, 224.0, 20.0 ],
					"numoutlets" : 15,
					"fontsize" : 12.0,
					"outlettype" : [ "", "", "", "", "", "", "", "", "", "", "", "", "", "", "" ]
				}

			}
, 			{
				"box" : 				{
					"maxclass" : "newobj",
					"text" : "route srcdim",
					"id" : "obj-5",
					"fontname" : "Arial",
					"numinlets" : 1,
					"patching_rect" : [ 278.0, 88.0, 77.0, 20.0 ],
					"numoutlets" : 2,
					"fontsize" : 12.0,
					"outlettype" : [ "", "" ]
				}

			}
, 			{
				"box" : 				{
					"maxclass" : "newobj",
					"text" : "route param",
					"id" : "obj-4",
					"fontname" : "Arial",
					"numinlets" : 1,
					"patching_rect" : [ 278.0, 65.0, 75.0, 20.0 ],
					"numoutlets" : 2,
					"fontsize" : 12.0,
					"outlettype" : [ "", "" ]
				}

			}
, 			{
				"box" : 				{
					"maxclass" : "newobj",
					"text" : "receive sourceInputTextureScale",
					"id" : "obj-97",
					"fontname" : "Arial",
					"numinlets" : 0,
					"patching_rect" : [ 13.0, 61.0, 185.0, 20.0 ],
					"numoutlets" : 1,
					"fontsize" : 12.0,
					"outlettype" : [ "" ]
				}

			}
, 			{
				"box" : 				{
					"maxclass" : "newobj",
					"text" : "p textureFrameData",
					"id" : "obj-95",
					"fontname" : "Arial",
					"numinlets" : 2,
					"patching_rect" : [ 13.0, 112.0, 284.0, 20.0 ],
					"numoutlets" : 2,
					"fontsize" : 11.595187,
					"outlettype" : [ "", "" ],
					"patcher" : 					{
						"fileversion" : 1,
						"appversion" : 						{
							"major" : 5,
							"minor" : 1,
							"revision" : 9
						}
,
						"rect" : [ 437.0, 44.0, 640.0, 480.0 ],
						"bglocked" : 0,
						"defrect" : [ 437.0, 44.0, 640.0, 480.0 ],
						"openrect" : [ 0.0, 0.0, 0.0, 0.0 ],
						"openinpresentation" : 0,
						"default_fontsize" : 12.0,
						"default_fontface" : 0,
						"default_fontname" : "Arial",
						"gridonopen" : 0,
						"gridsize" : [ 15.0, 15.0 ],
						"gridsnaponopen" : 0,
						"toolbarvisible" : 1,
						"boxanimatetime" : 200,
						"imprint" : 0,
						"enablehscroll" : 1,
						"enablevscroll" : 1,
						"devicewidth" : 0.0,
						"boxes" : [ 							{
								"box" : 								{
									"maxclass" : "newobj",
									"text" : "t b f",
									"id" : "obj-8",
									"fontname" : "Arial",
									"numinlets" : 1,
									"patching_rect" : [ 36.0, 58.0, 32.5, 20.0 ],
									"numoutlets" : 2,
									"fontsize" : 12.0,
									"outlettype" : [ "bang", "float" ]
								}

							}
, 							{
								"box" : 								{
									"maxclass" : "message",
									"id" : "obj-7",
									"fontname" : "Arial",
									"numinlets" : 2,
									"patching_rect" : [ 122.0, 104.0, 149.0, 18.0 ],
									"numoutlets" : 1,
									"fontsize" : 12.0,
									"outlettype" : [ "" ]
								}

							}
, 							{
								"box" : 								{
									"maxclass" : "newobj",
									"text" : "* -1.",
									"id" : "obj-6",
									"fontname" : "Arial",
									"numinlets" : 2,
									"patching_rect" : [ 269.0, 202.0, 33.0, 20.0 ],
									"numoutlets" : 1,
									"fontsize" : 12.0,
									"outlettype" : [ "float" ]
								}

							}
, 							{
								"box" : 								{
									"maxclass" : "newobj",
									"text" : "* -1.",
									"id" : "obj-2",
									"fontname" : "Arial",
									"numinlets" : 2,
									"patching_rect" : [ 162.0, 202.0, 33.0, 20.0 ],
									"numoutlets" : 1,
									"fontsize" : 12.0,
									"outlettype" : [ "float" ]
								}

							}
, 							{
								"box" : 								{
									"maxclass" : "outlet",
									"id" : "obj-5",
									"numinlets" : 1,
									"patching_rect" : [ 105.0, 318.0, 25.0, 25.0 ],
									"numoutlets" : 0,
									"comment" : ""
								}

							}
, 							{
								"box" : 								{
									"maxclass" : "outlet",
									"id" : "obj-4",
									"numinlets" : 1,
									"patching_rect" : [ 16.0, 311.0, 25.0, 25.0 ],
									"numoutlets" : 0,
									"comment" : ""
								}

							}
, 							{
								"box" : 								{
									"maxclass" : "inlet",
									"id" : "obj-3",
									"numinlets" : 0,
									"patching_rect" : [ 36.0, 22.0, 25.0, 25.0 ],
									"numoutlets" : 1,
									"outlettype" : [ "float" ],
									"comment" : ""
								}

							}
, 							{
								"box" : 								{
									"maxclass" : "newobj",
									"text" : "+ 0.05",
									"id" : "obj-93",
									"fontname" : "Arial",
									"numinlets" : 2,
									"patching_rect" : [ 65.0, 254.0, 43.0, 20.0 ],
									"numoutlets" : 1,
									"fontsize" : 11.595187,
									"outlettype" : [ "float" ]
								}

							}
, 							{
								"box" : 								{
									"maxclass" : "newobj",
									"text" : "+ 0.05",
									"id" : "obj-92",
									"fontname" : "Arial",
									"numinlets" : 2,
									"patching_rect" : [ 15.0, 256.0, 43.0, 20.0 ],
									"numoutlets" : 1,
									"fontsize" : 11.595187,
									"outlettype" : [ "float" ]
								}

							}
, 							{
								"box" : 								{
									"maxclass" : "newobj",
									"text" : "pak f f f f",
									"id" : "obj-88",
									"fontname" : "Arial",
									"numinlets" : 4,
									"patching_rect" : [ 108.0, 280.0, 179.5, 20.0 ],
									"numoutlets" : 1,
									"fontsize" : 11.595187,
									"outlettype" : [ "" ]
								}

							}
, 							{
								"box" : 								{
									"maxclass" : "newobj",
									"text" : "* 2.",
									"id" : "obj-72",
									"fontname" : "Arial",
									"numinlets" : 2,
									"patching_rect" : [ 269.0, 178.0, 32.5, 20.0 ],
									"numoutlets" : 1,
									"fontsize" : 11.595187,
									"outlettype" : [ "float" ]
								}

							}
, 							{
								"box" : 								{
									"maxclass" : "newobj",
									"text" : "* 2.",
									"id" : "obj-71",
									"fontname" : "Arial",
									"numinlets" : 2,
									"patching_rect" : [ 215.0, 178.0, 32.5, 20.0 ],
									"numoutlets" : 1,
									"fontsize" : 11.595187,
									"outlettype" : [ "float" ]
								}

							}
, 							{
								"box" : 								{
									"maxclass" : "newobj",
									"text" : "* 2.",
									"id" : "obj-52",
									"fontname" : "Arial",
									"numinlets" : 2,
									"patching_rect" : [ 162.0, 178.0, 32.5, 20.0 ],
									"numoutlets" : 1,
									"fontsize" : 11.595187,
									"outlettype" : [ "float" ]
								}

							}
, 							{
								"box" : 								{
									"maxclass" : "newobj",
									"text" : "* 2.",
									"id" : "obj-51",
									"fontname" : "Arial",
									"numinlets" : 2,
									"patching_rect" : [ 108.0, 178.0, 32.5, 20.0 ],
									"numoutlets" : 1,
									"fontsize" : 11.595187,
									"outlettype" : [ "float" ]
								}

							}
, 							{
								"box" : 								{
									"maxclass" : "newobj",
									"text" : "* 1.3",
									"id" : "obj-33",
									"fontname" : "Arial",
									"numinlets" : 2,
									"patching_rect" : [ 215.0, 202.0, 34.0, 20.0 ],
									"numoutlets" : 1,
									"fontsize" : 11.595187,
									"outlettype" : [ "float" ]
								}

							}
, 							{
								"box" : 								{
									"maxclass" : "newobj",
									"text" : "* 1.3",
									"id" : "obj-32",
									"fontname" : "Arial",
									"numinlets" : 2,
									"patching_rect" : [ 108.0, 202.0, 34.0, 20.0 ],
									"numoutlets" : 1,
									"fontsize" : 11.595187,
									"outlettype" : [ "float" ]
								}

							}
, 							{
								"box" : 								{
									"maxclass" : "newobj",
									"text" : "pack f f",
									"id" : "obj-31",
									"fontname" : "Arial",
									"numinlets" : 2,
									"patching_rect" : [ 15.0, 278.0, 69.0, 20.0 ],
									"numoutlets" : 1,
									"fontsize" : 11.595187,
									"outlettype" : [ "" ]
								}

							}
, 							{
								"box" : 								{
									"maxclass" : "newobj",
									"text" : "!- 0.5",
									"id" : "obj-30",
									"fontname" : "Arial",
									"numinlets" : 2,
									"patching_rect" : [ 269.0, 154.0, 37.0, 20.0 ],
									"numoutlets" : 1,
									"fontsize" : 11.595187,
									"outlettype" : [ "float" ]
								}

							}
, 							{
								"box" : 								{
									"maxclass" : "newobj",
									"text" : "- 0.5",
									"id" : "obj-26",
									"fontname" : "Arial",
									"numinlets" : 2,
									"patching_rect" : [ 215.0, 154.0, 34.0, 20.0 ],
									"numoutlets" : 1,
									"fontsize" : 11.595187,
									"outlettype" : [ "float" ]
								}

							}
, 							{
								"box" : 								{
									"maxclass" : "newobj",
									"text" : "!- 0.5",
									"id" : "obj-25",
									"fontname" : "Arial",
									"numinlets" : 2,
									"patching_rect" : [ 162.0, 154.0, 37.0, 20.0 ],
									"numoutlets" : 1,
									"fontsize" : 11.595187,
									"outlettype" : [ "float" ]
								}

							}
, 							{
								"box" : 								{
									"maxclass" : "newobj",
									"text" : "- 0.5",
									"id" : "obj-24",
									"fontname" : "Arial",
									"numinlets" : 2,
									"patching_rect" : [ 108.0, 154.0, 34.0, 20.0 ],
									"numoutlets" : 1,
									"fontsize" : 11.595187,
									"outlettype" : [ "float" ]
								}

							}
, 							{
								"box" : 								{
									"maxclass" : "newobj",
									"text" : "unpack f f f f",
									"id" : "obj-22",
									"fontname" : "Arial",
									"numinlets" : 1,
									"patching_rect" : [ 108.0, 130.0, 180.0, 20.0 ],
									"numoutlets" : 4,
									"fontsize" : 11.595187,
									"outlettype" : [ "float", "float", "float", "float" ]
								}

							}
, 							{
								"box" : 								{
									"maxclass" : "inlet",
									"id" : "obj-1",
									"numinlets" : 0,
									"patching_rect" : [ 107.0, 66.0, 25.0, 25.0 ],
									"numoutlets" : 1,
									"outlettype" : [ "" ],
									"comment" : ""
								}

							}
 ],
						"lines" : [ 							{
								"patchline" : 								{
									"source" : [ "obj-2", 0 ],
									"destination" : [ "obj-93", 0 ],
									"hidden" : 0,
									"midpoints" : [  ]
								}

							}
, 							{
								"patchline" : 								{
									"source" : [ "obj-6", 0 ],
									"destination" : [ "obj-88", 3 ],
									"hidden" : 0,
									"midpoints" : [  ]
								}

							}
, 							{
								"patchline" : 								{
									"source" : [ "obj-72", 0 ],
									"destination" : [ "obj-6", 0 ],
									"hidden" : 0,
									"midpoints" : [  ]
								}

							}
, 							{
								"patchline" : 								{
									"source" : [ "obj-52", 0 ],
									"destination" : [ "obj-2", 0 ],
									"hidden" : 0,
									"midpoints" : [  ]
								}

							}
, 							{
								"patchline" : 								{
									"source" : [ "obj-2", 0 ],
									"destination" : [ "obj-88", 1 ],
									"hidden" : 0,
									"midpoints" : [  ]
								}

							}
, 							{
								"patchline" : 								{
									"source" : [ "obj-93", 0 ],
									"destination" : [ "obj-31", 1 ],
									"hidden" : 0,
									"midpoints" : [  ]
								}

							}
, 							{
								"patchline" : 								{
									"source" : [ "obj-92", 0 ],
									"destination" : [ "obj-31", 0 ],
									"hidden" : 0,
									"midpoints" : [  ]
								}

							}
, 							{
								"patchline" : 								{
									"source" : [ "obj-32", 0 ],
									"destination" : [ "obj-92", 0 ],
									"hidden" : 0,
									"midpoints" : [  ]
								}

							}
, 							{
								"patchline" : 								{
									"source" : [ "obj-33", 0 ],
									"destination" : [ "obj-88", 2 ],
									"hidden" : 0,
									"midpoints" : [  ]
								}

							}
, 							{
								"patchline" : 								{
									"source" : [ "obj-32", 0 ],
									"destination" : [ "obj-88", 0 ],
									"hidden" : 0,
									"midpoints" : [  ]
								}

							}
, 							{
								"patchline" : 								{
									"source" : [ "obj-22", 3 ],
									"destination" : [ "obj-30", 0 ],
									"hidden" : 0,
									"midpoints" : [  ]
								}

							}
, 							{
								"patchline" : 								{
									"source" : [ "obj-30", 0 ],
									"destination" : [ "obj-72", 0 ],
									"hidden" : 0,
									"midpoints" : [  ]
								}

							}
, 							{
								"patchline" : 								{
									"source" : [ "obj-22", 1 ],
									"destination" : [ "obj-25", 0 ],
									"hidden" : 0,
									"midpoints" : [  ]
								}

							}
, 							{
								"patchline" : 								{
									"source" : [ "obj-25", 0 ],
									"destination" : [ "obj-52", 0 ],
									"hidden" : 0,
									"midpoints" : [  ]
								}

							}
, 							{
								"patchline" : 								{
									"source" : [ "obj-71", 0 ],
									"destination" : [ "obj-33", 0 ],
									"hidden" : 0,
									"midpoints" : [  ]
								}

							}
, 							{
								"patchline" : 								{
									"source" : [ "obj-51", 0 ],
									"destination" : [ "obj-32", 0 ],
									"hidden" : 0,
									"midpoints" : [  ]
								}

							}
, 							{
								"patchline" : 								{
									"source" : [ "obj-26", 0 ],
									"destination" : [ "obj-71", 0 ],
									"hidden" : 0,
									"midpoints" : [  ]
								}

							}
, 							{
								"patchline" : 								{
									"source" : [ "obj-24", 0 ],
									"destination" : [ "obj-51", 0 ],
									"hidden" : 0,
									"midpoints" : [  ]
								}

							}
, 							{
								"patchline" : 								{
									"source" : [ "obj-22", 2 ],
									"destination" : [ "obj-26", 0 ],
									"hidden" : 0,
									"midpoints" : [  ]
								}

							}
, 							{
								"patchline" : 								{
									"source" : [ "obj-22", 0 ],
									"destination" : [ "obj-24", 0 ],
									"hidden" : 0,
									"midpoints" : [  ]
								}

							}
, 							{
								"patchline" : 								{
									"source" : [ "obj-1", 0 ],
									"destination" : [ "obj-22", 0 ],
									"hidden" : 0,
									"midpoints" : [  ]
								}

							}
, 							{
								"patchline" : 								{
									"source" : [ "obj-31", 0 ],
									"destination" : [ "obj-4", 0 ],
									"hidden" : 0,
									"midpoints" : [  ]
								}

							}
, 							{
								"patchline" : 								{
									"source" : [ "obj-88", 0 ],
									"destination" : [ "obj-5", 0 ],
									"hidden" : 0,
									"midpoints" : [  ]
								}

							}
, 							{
								"patchline" : 								{
									"source" : [ "obj-1", 0 ],
									"destination" : [ "obj-7", 1 ],
									"hidden" : 0,
									"midpoints" : [  ]
								}

							}
, 							{
								"patchline" : 								{
									"source" : [ "obj-7", 0 ],
									"destination" : [ "obj-22", 0 ],
									"hidden" : 0,
									"midpoints" : [  ]
								}

							}
, 							{
								"patchline" : 								{
									"source" : [ "obj-8", 1 ],
									"destination" : [ "obj-32", 1 ],
									"hidden" : 0,
									"midpoints" : [  ]
								}

							}
, 							{
								"patchline" : 								{
									"source" : [ "obj-8", 1 ],
									"destination" : [ "obj-33", 1 ],
									"hidden" : 0,
									"midpoints" : [  ]
								}

							}
, 							{
								"patchline" : 								{
									"source" : [ "obj-8", 0 ],
									"destination" : [ "obj-7", 0 ],
									"hidden" : 0,
									"midpoints" : [  ]
								}

							}
, 							{
								"patchline" : 								{
									"source" : [ "obj-3", 0 ],
									"destination" : [ "obj-8", 0 ],
									"hidden" : 0,
									"midpoints" : [  ]
								}

							}
 ]
					}
,
					"saved_object_attributes" : 					{
						"default_fontface" : 0,
						"fontname" : "Arial",
						"default_fontname" : "Arial",
						"globalpatchername" : "",
						"default_fontsize" : 12.0,
						"fontface" : 0,
						"fontsize" : 12.0
					}

				}

			}
, 			{
				"box" : 				{
					"maxclass" : "message",
					"text" : "color #2 #3 #4 1., text #1, position $1 $2",
					"id" : "obj-76",
					"fontname" : "Arial",
					"numinlets" : 2,
					"patching_rect" : [ 13.0, 137.0, 217.0, 18.0 ],
					"numoutlets" : 1,
					"fontsize" : 11.595187,
					"outlettype" : [ "" ]
				}

			}
, 			{
				"box" : 				{
					"maxclass" : "newobj",
					"text" : "jit.gl.text2d input @layer 2",
					"id" : "obj-75",
					"fontname" : "Arial",
					"numinlets" : 1,
					"patching_rect" : [ 13.0, 163.0, 144.0, 20.0 ],
					"numoutlets" : 2,
					"fontsize" : 11.595187,
					"outlettype" : [ "", "" ]
				}

			}
, 			{
				"box" : 				{
					"maxclass" : "flonum",
					"id" : "obj-74",
					"fontname" : "Arial",
					"numinlets" : 1,
					"patching_rect" : [ 13.0, 85.0, 50.0, 20.0 ],
					"numoutlets" : 2,
					"fontsize" : 11.595187,
					"outlettype" : [ "float", "bang" ]
				}

			}
, 			{
				"box" : 				{
					"maxclass" : "message",
					"text" : "reset, glcolor #2 #3 #4, glbegin line_loop, glvertex $1 $2 0., glvertex $3 $2 0., glvertex $3 $4 0, glvertex $1 $4 0., glend",
					"id" : "obj-18",
					"fontname" : "Arial",
					"numinlets" : 2,
					"patching_rect" : [ 278.0, 140.0, 625.0, 18.0 ],
					"numoutlets" : 1,
					"fontsize" : 11.595187,
					"outlettype" : [ "" ]
				}

			}
, 			{
				"box" : 				{
					"maxclass" : "newobj",
					"text" : "jit.gl.sketch input @layer 2",
					"id" : "obj-17",
					"fontname" : "Arial",
					"numinlets" : 1,
					"patching_rect" : [ 278.0, 164.0, 146.0, 20.0 ],
					"numoutlets" : 2,
					"fontsize" : 11.595187,
					"outlettype" : [ "", "" ]
				}

			}
, 			{
				"box" : 				{
					"maxclass" : "inlet",
					"id" : "obj-3",
					"numinlets" : 0,
					"patching_rect" : [ 205.0, 4.0, 25.0, 25.0 ],
					"numoutlets" : 1,
					"outlettype" : [ "" ],
					"comment" : ""
				}

			}
 ],
		"lines" : [ 			{
				"patchline" : 				{
					"source" : [ "obj-1", 3 ],
					"destination" : [ "obj-75", 0 ],
					"hidden" : 0,
					"midpoints" : [  ]
				}

			}
, 			{
				"patchline" : 				{
					"source" : [ "obj-1", 3 ],
					"destination" : [ "obj-17", 0 ],
					"hidden" : 0,
					"midpoints" : [  ]
				}

			}
, 			{
				"patchline" : 				{
					"source" : [ "obj-1", 5 ],
					"destination" : [ "obj-4", 0 ],
					"hidden" : 0,
					"midpoints" : [  ]
				}

			}
, 			{
				"patchline" : 				{
					"source" : [ "obj-76", 0 ],
					"destination" : [ "obj-75", 0 ],
					"hidden" : 0,
					"midpoints" : [  ]
				}

			}
, 			{
				"patchline" : 				{
					"source" : [ "obj-18", 0 ],
					"destination" : [ "obj-17", 0 ],
					"hidden" : 0,
					"midpoints" : [  ]
				}

			}
, 			{
				"patchline" : 				{
					"source" : [ "obj-74", 0 ],
					"destination" : [ "obj-95", 0 ],
					"hidden" : 0,
					"midpoints" : [  ]
				}

			}
, 			{
				"patchline" : 				{
					"source" : [ "obj-95", 0 ],
					"destination" : [ "obj-76", 0 ],
					"hidden" : 0,
					"midpoints" : [  ]
				}

			}
, 			{
				"patchline" : 				{
					"source" : [ "obj-95", 1 ],
					"destination" : [ "obj-18", 0 ],
					"hidden" : 0,
					"midpoints" : [  ]
				}

			}
, 			{
				"patchline" : 				{
					"source" : [ "obj-4", 0 ],
					"destination" : [ "obj-5", 0 ],
					"hidden" : 0,
					"midpoints" : [  ]
				}

			}
, 			{
				"patchline" : 				{
					"source" : [ "obj-5", 0 ],
					"destination" : [ "obj-95", 1 ],
					"hidden" : 0,
					"midpoints" : [  ]
				}

			}
, 			{
				"patchline" : 				{
					"source" : [ "obj-3", 0 ],
					"destination" : [ "obj-1", 0 ],
					"hidden" : 0,
					"midpoints" : [  ]
				}

			}
, 			{
				"patchline" : 				{
					"source" : [ "obj-97", 0 ],
					"destination" : [ "obj-74", 0 ],
					"hidden" : 0,
					"midpoints" : [  ]
				}

			}
 ]
	}

}
