{
	"patcher" : 	{
		"fileversion" : 1,
		"appversion" : 		{
			"major" : 5,
			"minor" : 1,
			"revision" : 9
		}
,
		"rect" : [ 749.0, 38.0, 417.0, 236.0 ],
		"bglocked" : 0,
		"defrect" : [ 749.0, 38.0, 417.0, 236.0 ],
		"openrect" : [ 0.0, 0.0, 0.0, 0.0 ],
		"openinpresentation" : 1,
		"default_fontsize" : 12.0,
		"default_fontface" : 0,
		"default_fontname" : "Arial",
		"gridonopen" : 0,
		"gridsize" : [ 15.0, 15.0 ],
		"gridsnaponopen" : 0,
		"toolbarvisible" : 1,
		"boxanimatetime" : 200,
		"imprint" : 0,
		"enablehscroll" : 1,
		"enablevscroll" : 1,
		"devicewidth" : 0.0,
		"title" : "#1",
		"boxes" : [ 			{
				"box" : 				{
					"maxclass" : "message",
					"text" : "1",
					"numoutlets" : 1,
					"outlettype" : [ "" ],
					"id" : "obj-16",
					"fontname" : "Arial",
					"patching_rect" : [ 605.0, 36.0, 32.5, 18.0 ],
					"fontsize" : 12.0,
					"numinlets" : 2
				}

			}
, 			{
				"box" : 				{
					"maxclass" : "newobj",
					"text" : "route 0",
					"numoutlets" : 2,
					"outlettype" : [ "", "" ],
					"id" : "obj-35",
					"fontname" : "Arial",
					"patching_rect" : [ 656.0, 291.0, 48.0, 20.0 ],
					"fontsize" : 12.0,
					"numinlets" : 1
				}

			}
, 			{
				"box" : 				{
					"maxclass" : "newobj",
					"text" : "+ 1",
					"numoutlets" : 1,
					"outlettype" : [ "int" ],
					"id" : "obj-34",
					"fontname" : "Arial",
					"patching_rect" : [ 608.0, 287.0, 32.5, 20.0 ],
					"fontsize" : 12.0,
					"numinlets" : 2
				}

			}
, 			{
				"box" : 				{
					"maxclass" : "newobj",
					"text" : "loadmess 0",
					"numoutlets" : 1,
					"outlettype" : [ "" ],
					"id" : "obj-33",
					"fontname" : "Arial",
					"patching_rect" : [ 380.0, 6.0, 72.0, 20.0 ],
					"fontsize" : 12.0,
					"numinlets" : 1
				}

			}
, 			{
				"box" : 				{
					"maxclass" : "flonum",
					"numoutlets" : 2,
					"outlettype" : [ "float", "bang" ],
					"id" : "obj-31",
					"fontname" : "Arial",
					"patching_rect" : [ 169.0, 278.0, 50.0, 20.0 ],
					"fontsize" : 12.0,
					"numinlets" : 1
				}

			}
, 			{
				"box" : 				{
					"maxclass" : "newobj",
					"text" : "t b i",
					"numoutlets" : 2,
					"outlettype" : [ "bang", "int" ],
					"id" : "obj-51",
					"fontname" : "Arial",
					"patching_rect" : [ 100.0, 74.0, 32.5, 20.0 ],
					"fontsize" : 12.0,
					"numinlets" : 1
				}

			}
, 			{
				"box" : 				{
					"maxclass" : "comment",
					"text" : "size",
					"numoutlets" : 0,
					"presentation_rect" : [ 7.0, 2.0, 27.0, 18.0 ],
					"id" : "obj-47",
					"fontname" : "Arial",
					"patching_rect" : [ 79.0, 31.0, 27.0, 18.0 ],
					"presentation" : 1,
					"fontsize" : 10.0,
					"numinlets" : 1
				}

			}
, 			{
				"box" : 				{
					"maxclass" : "comment",
					"text" : "type",
					"numoutlets" : 0,
					"presentation_rect" : [ 104.0, 2.0, 27.0, 18.0 ],
					"id" : "obj-46",
					"fontname" : "Arial",
					"patching_rect" : [ 608.0, 236.0, 27.0, 18.0 ],
					"presentation" : 1,
					"fontsize" : 10.0,
					"numinlets" : 1
				}

			}
, 			{
				"box" : 				{
					"maxclass" : "umenu",
					"varname" : "resolution",
					"items" : [ 100, ",", 120, ",", 150, ",", 200, ",", 250, ",", 300, ",", 400, ",", 500 ],
					"numoutlets" : 3,
					"outlettype" : [ "int", "", "" ],
					"presentation_rect" : [ 35.0, 2.0, 59.0, 18.0 ],
					"id" : "obj-45",
					"fontname" : "Arial",
					"labelclick" : 1,
					"types" : [  ],
					"patching_rect" : [ 78.0, 51.0, 62.0, 18.0 ],
					"presentation" : 1,
					"fontsize" : 10.0,
					"numinlets" : 1
				}

			}
, 			{
				"box" : 				{
					"maxclass" : "comment",
					"text" : "reset",
					"numoutlets" : 0,
					"presentation_rect" : [ 376.0, 2.0, 37.0, 20.0 ],
					"id" : "obj-44",
					"fontname" : "Arial",
					"patching_rect" : [ 410.0, 38.0, 37.0, 20.0 ],
					"presentation" : 1,
					"fontsize" : 12.0,
					"numinlets" : 1
				}

			}
, 			{
				"box" : 				{
					"maxclass" : "button",
					"numoutlets" : 1,
					"outlettype" : [ "bang" ],
					"presentation_rect" : [ 356.0, 2.0, 20.0, 20.0 ],
					"id" : "obj-43",
					"patching_rect" : [ 390.0, 38.0, 20.0, 20.0 ],
					"presentation" : 1,
					"numinlets" : 1
				}

			}
, 			{
				"box" : 				{
					"maxclass" : "comment",
					"text" : "edit",
					"numoutlets" : 0,
					"presentation_rect" : [ 206.0, 2.0, 27.0, 18.0 ],
					"id" : "obj-42",
					"fontname" : "Arial",
					"patching_rect" : [ 441.0, 103.0, 27.0, 18.0 ],
					"presentation" : 1,
					"hidden" : 1,
					"fontsize" : 10.0,
					"numinlets" : 1
				}

			}
, 			{
				"box" : 				{
					"maxclass" : "message",
					"text" : "hidden $1",
					"numoutlets" : 1,
					"outlettype" : [ "" ],
					"id" : "obj-41",
					"fontname" : "Arial",
					"patching_rect" : [ 474.0, 80.0, 50.0, 15.0 ],
					"fontsize" : 9.0,
					"numinlets" : 2
				}

			}
, 			{
				"box" : 				{
					"maxclass" : "newobj",
					"text" : "p edit",
					"numoutlets" : 4,
					"outlettype" : [ "", "", "", "" ],
					"id" : "obj-39",
					"fontname" : "Arial",
					"patching_rect" : [ 125.0, 125.0, 368.0, 20.0 ],
					"fontsize" : 12.0,
					"numinlets" : 4,
					"patcher" : 					{
						"fileversion" : 1,
						"appversion" : 						{
							"major" : 5,
							"minor" : 1,
							"revision" : 9
						}
,
						"rect" : [ 163.0, 95.0, 771.0, 472.0 ],
						"bglocked" : 0,
						"defrect" : [ 163.0, 95.0, 771.0, 472.0 ],
						"openrect" : [ 0.0, 0.0, 0.0, 0.0 ],
						"openinpresentation" : 0,
						"default_fontsize" : 12.0,
						"default_fontface" : 0,
						"default_fontname" : "Arial",
						"gridonopen" : 0,
						"gridsize" : [ 15.0, 15.0 ],
						"gridsnaponopen" : 0,
						"toolbarvisible" : 1,
						"boxanimatetime" : 200,
						"imprint" : 0,
						"enablehscroll" : 1,
						"enablevscroll" : 1,
						"devicewidth" : 0.0,
						"boxes" : [ 							{
								"box" : 								{
									"maxclass" : "message",
									"text" : "100",
									"numoutlets" : 1,
									"outlettype" : [ "" ],
									"id" : "obj-25",
									"fontname" : "Arial",
									"patching_rect" : [ 179.0, 145.0, 50.0, 18.0 ],
									"fontsize" : 12.0,
									"numinlets" : 2
								}

							}
, 							{
								"box" : 								{
									"maxclass" : "newobj",
									"text" : "route setdomain",
									"numoutlets" : 2,
									"outlettype" : [ "", "" ],
									"id" : "obj-24",
									"fontname" : "Arial",
									"patching_rect" : [ 85.0, 105.0, 97.0, 20.0 ],
									"fontsize" : 12.0,
									"numinlets" : 1
								}

							}
, 							{
								"box" : 								{
									"maxclass" : "inlet",
									"hint" : "",
									"annotation" : "",
									"numoutlets" : 1,
									"outlettype" : [ "" ],
									"id" : "obj-23",
									"patching_rect" : [ 9.0, 71.0, 25.0, 25.0 ],
									"numinlets" : 0,
									"comment" : "through"
								}

							}
, 							{
								"box" : 								{
									"maxclass" : "message",
									"text" : "1",
									"numoutlets" : 1,
									"outlettype" : [ "" ],
									"id" : "obj-21",
									"fontname" : "Arial",
									"patching_rect" : [ 671.0, 149.0, 23.5, 18.0 ],
									"fontsize" : 12.0,
									"numinlets" : 2
								}

							}
, 							{
								"box" : 								{
									"maxclass" : "message",
									"text" : "0",
									"numoutlets" : 1,
									"outlettype" : [ "" ],
									"id" : "obj-22",
									"fontname" : "Arial",
									"patching_rect" : [ 645.0, 149.0, 23.5, 18.0 ],
									"fontsize" : 12.0,
									"numinlets" : 2
								}

							}
, 							{
								"box" : 								{
									"maxclass" : "message",
									"text" : "1",
									"numoutlets" : 1,
									"outlettype" : [ "" ],
									"id" : "obj-19",
									"fontname" : "Arial",
									"patching_rect" : [ 618.0, 149.0, 23.5, 18.0 ],
									"fontsize" : 12.0,
									"numinlets" : 2
								}

							}
, 							{
								"box" : 								{
									"maxclass" : "message",
									"text" : "0",
									"numoutlets" : 1,
									"outlettype" : [ "" ],
									"id" : "obj-20",
									"fontname" : "Arial",
									"patching_rect" : [ 592.0, 149.0, 23.5, 18.0 ],
									"fontsize" : 12.0,
									"numinlets" : 2
								}

							}
, 							{
								"box" : 								{
									"maxclass" : "message",
									"text" : "1",
									"numoutlets" : 1,
									"outlettype" : [ "" ],
									"id" : "obj-17",
									"fontname" : "Arial",
									"patching_rect" : [ 566.0, 149.0, 23.5, 18.0 ],
									"fontsize" : 12.0,
									"numinlets" : 2
								}

							}
, 							{
								"box" : 								{
									"maxclass" : "message",
									"text" : "0",
									"numoutlets" : 1,
									"outlettype" : [ "" ],
									"id" : "obj-18",
									"fontname" : "Arial",
									"patching_rect" : [ 540.0, 149.0, 23.5, 18.0 ],
									"fontsize" : 12.0,
									"numinlets" : 2
								}

							}
, 							{
								"box" : 								{
									"maxclass" : "message",
									"text" : "1",
									"numoutlets" : 1,
									"outlettype" : [ "" ],
									"id" : "obj-14",
									"fontname" : "Arial",
									"patching_rect" : [ 512.0, 149.0, 23.5, 18.0 ],
									"fontsize" : 12.0,
									"numinlets" : 2
								}

							}
, 							{
								"box" : 								{
									"maxclass" : "message",
									"text" : "0",
									"numoutlets" : 1,
									"outlettype" : [ "" ],
									"id" : "obj-13",
									"fontname" : "Arial",
									"patching_rect" : [ 486.0, 149.0, 23.5, 18.0 ],
									"fontsize" : 12.0,
									"numinlets" : 2
								}

							}
, 							{
								"box" : 								{
									"maxclass" : "message",
									"text" : "background $1",
									"numoutlets" : 1,
									"outlettype" : [ "" ],
									"id" : "obj-12",
									"fontname" : "Arial",
									"patching_rect" : [ 644.0, 350.0, 90.0, 18.0 ],
									"fontsize" : 12.0,
									"numinlets" : 2
								}

							}
, 							{
								"box" : 								{
									"maxclass" : "message",
									"text" : "background $1",
									"numoutlets" : 1,
									"outlettype" : [ "" ],
									"id" : "obj-11",
									"fontname" : "Arial",
									"patching_rect" : [ 494.0, 350.0, 90.0, 18.0 ],
									"fontsize" : 12.0,
									"numinlets" : 2
								}

							}
, 							{
								"box" : 								{
									"maxclass" : "message",
									"text" : "background $1",
									"numoutlets" : 1,
									"outlettype" : [ "" ],
									"id" : "obj-10",
									"fontname" : "Arial",
									"patching_rect" : [ 349.0, 350.0, 90.0, 18.0 ],
									"fontsize" : 12.0,
									"numinlets" : 2
								}

							}
, 							{
								"box" : 								{
									"maxclass" : "newobj",
									"text" : "route 0 1 2 3",
									"numoutlets" : 5,
									"outlettype" : [ "", "", "", "", "" ],
									"id" : "obj-8",
									"fontname" : "Arial",
									"patching_rect" : [ 499.0, 117.0, 229.0, 20.0 ],
									"fontsize" : 12.0,
									"numinlets" : 1
								}

							}
, 							{
								"box" : 								{
									"maxclass" : "message",
									"text" : "background $1",
									"numoutlets" : 1,
									"outlettype" : [ "" ],
									"id" : "obj-37",
									"fontname" : "Arial",
									"patching_rect" : [ 215.0, 350.0, 90.0, 18.0 ],
									"fontsize" : 12.0,
									"numinlets" : 2
								}

							}
, 							{
								"box" : 								{
									"maxclass" : "inlet",
									"hint" : "",
									"numoutlets" : 1,
									"outlettype" : [ "int" ],
									"id" : "obj-7",
									"patching_rect" : [ 499.0, 71.0, 25.0, 25.0 ],
									"numinlets" : 0,
									"comment" : "editability"
								}

							}
, 							{
								"box" : 								{
									"maxclass" : "message",
									"text" : "hidden $1",
									"numoutlets" : 1,
									"outlettype" : [ "" ],
									"id" : "obj-35",
									"fontname" : "Arial",
									"patching_rect" : [ 347.0, 143.0, 63.0, 18.0 ],
									"fontsize" : 12.0,
									"numinlets" : 2
								}

							}
, 							{
								"box" : 								{
									"maxclass" : "message",
									"text" : "clear, 0 0.5, $1 0.5",
									"numoutlets" : 1,
									"outlettype" : [ "" ],
									"id" : "obj-16",
									"fontname" : "Arial",
									"patching_rect" : [ 227.0, 201.0, 109.0, 18.0 ],
									"fontsize" : 12.0,
									"numinlets" : 2
								}

							}
, 							{
								"box" : 								{
									"maxclass" : "message",
									"text" : "clear, 0 1., 46.81934 0.588889, 58.015266 0.561111, 68.702293 0.511111, 78.371498 0.438889, 87.277351 0.311111, $1 0.",
									"linecount" : 2,
									"numoutlets" : 1,
									"outlettype" : [ "" ],
									"id" : "obj-15",
									"fontname" : "Arial",
									"patching_rect" : [ 17.0, 243.0, 583.0, 32.0 ],
									"fontsize" : 12.0,
									"numinlets" : 2
								}

							}
, 							{
								"box" : 								{
									"maxclass" : "inlet",
									"hint" : "",
									"numoutlets" : 1,
									"outlettype" : [ "int" ],
									"id" : "obj-6",
									"patching_rect" : [ 347.0, 71.0, 25.0, 25.0 ],
									"numinlets" : 0,
									"comment" : "visibility"
								}

							}
, 							{
								"box" : 								{
									"maxclass" : "inlet",
									"hint" : "",
									"numoutlets" : 1,
									"outlettype" : [ "bang" ],
									"id" : "obj-5",
									"patching_rect" : [ 179.0, 71.0, 25.0, 25.0 ],
									"numinlets" : 0,
									"comment" : "reset"
								}

							}
, 							{
								"box" : 								{
									"maxclass" : "outlet",
									"numoutlets" : 0,
									"id" : "obj-4",
									"patching_rect" : [ 626.0, 386.0, 25.0, 25.0 ],
									"numinlets" : 1,
									"comment" : ""
								}

							}
, 							{
								"box" : 								{
									"maxclass" : "outlet",
									"numoutlets" : 0,
									"id" : "obj-3",
									"patching_rect" : [ 477.0, 386.0, 25.0, 25.0 ],
									"numinlets" : 1,
									"comment" : ""
								}

							}
, 							{
								"box" : 								{
									"maxclass" : "outlet",
									"numoutlets" : 0,
									"id" : "obj-2",
									"patching_rect" : [ 331.0, 386.0, 25.0, 25.0 ],
									"numinlets" : 1,
									"comment" : ""
								}

							}
, 							{
								"box" : 								{
									"maxclass" : "outlet",
									"numoutlets" : 0,
									"id" : "obj-1",
									"patching_rect" : [ 192.0, 386.0, 25.0, 25.0 ],
									"numinlets" : 1,
									"comment" : ""
								}

							}
 ],
						"lines" : [ 							{
								"patchline" : 								{
									"source" : [ "obj-25", 0 ],
									"destination" : [ "obj-16", 0 ],
									"hidden" : 0,
									"midpoints" : [  ]
								}

							}
, 							{
								"patchline" : 								{
									"source" : [ "obj-24", 0 ],
									"destination" : [ "obj-25", 1 ],
									"hidden" : 0,
									"midpoints" : [  ]
								}

							}
, 							{
								"patchline" : 								{
									"source" : [ "obj-23", 0 ],
									"destination" : [ "obj-24", 0 ],
									"hidden" : 0,
									"midpoints" : [  ]
								}

							}
, 							{
								"patchline" : 								{
									"source" : [ "obj-25", 0 ],
									"destination" : [ "obj-15", 0 ],
									"hidden" : 0,
									"midpoints" : [  ]
								}

							}
, 							{
								"patchline" : 								{
									"source" : [ "obj-5", 0 ],
									"destination" : [ "obj-25", 0 ],
									"hidden" : 0,
									"midpoints" : [  ]
								}

							}
, 							{
								"patchline" : 								{
									"source" : [ "obj-15", 0 ],
									"destination" : [ "obj-1", 0 ],
									"hidden" : 0,
									"midpoints" : [  ]
								}

							}
, 							{
								"patchline" : 								{
									"source" : [ "obj-16", 0 ],
									"destination" : [ "obj-2", 0 ],
									"hidden" : 0,
									"midpoints" : [  ]
								}

							}
, 							{
								"patchline" : 								{
									"source" : [ "obj-16", 0 ],
									"destination" : [ "obj-3", 0 ],
									"hidden" : 0,
									"midpoints" : [  ]
								}

							}
, 							{
								"patchline" : 								{
									"source" : [ "obj-16", 0 ],
									"destination" : [ "obj-4", 0 ],
									"hidden" : 0,
									"midpoints" : [  ]
								}

							}
, 							{
								"patchline" : 								{
									"source" : [ "obj-6", 0 ],
									"destination" : [ "obj-35", 0 ],
									"hidden" : 0,
									"midpoints" : [  ]
								}

							}
, 							{
								"patchline" : 								{
									"source" : [ "obj-35", 0 ],
									"destination" : [ "obj-2", 0 ],
									"hidden" : 0,
									"midpoints" : [  ]
								}

							}
, 							{
								"patchline" : 								{
									"source" : [ "obj-35", 0 ],
									"destination" : [ "obj-3", 0 ],
									"hidden" : 0,
									"midpoints" : [  ]
								}

							}
, 							{
								"patchline" : 								{
									"source" : [ "obj-35", 0 ],
									"destination" : [ "obj-4", 0 ],
									"hidden" : 0,
									"midpoints" : [  ]
								}

							}
, 							{
								"patchline" : 								{
									"source" : [ "obj-7", 0 ],
									"destination" : [ "obj-8", 0 ],
									"hidden" : 0,
									"midpoints" : [  ]
								}

							}
, 							{
								"patchline" : 								{
									"source" : [ "obj-8", 0 ],
									"destination" : [ "obj-13", 0 ],
									"hidden" : 0,
									"midpoints" : [  ]
								}

							}
, 							{
								"patchline" : 								{
									"source" : [ "obj-8", 0 ],
									"destination" : [ "obj-14", 0 ],
									"hidden" : 0,
									"midpoints" : [  ]
								}

							}
, 							{
								"patchline" : 								{
									"source" : [ "obj-8", 1 ],
									"destination" : [ "obj-18", 0 ],
									"hidden" : 0,
									"midpoints" : [  ]
								}

							}
, 							{
								"patchline" : 								{
									"source" : [ "obj-8", 1 ],
									"destination" : [ "obj-17", 0 ],
									"hidden" : 0,
									"midpoints" : [  ]
								}

							}
, 							{
								"patchline" : 								{
									"source" : [ "obj-8", 2 ],
									"destination" : [ "obj-20", 0 ],
									"hidden" : 0,
									"midpoints" : [  ]
								}

							}
, 							{
								"patchline" : 								{
									"source" : [ "obj-8", 2 ],
									"destination" : [ "obj-19", 0 ],
									"hidden" : 0,
									"midpoints" : [  ]
								}

							}
, 							{
								"patchline" : 								{
									"source" : [ "obj-8", 3 ],
									"destination" : [ "obj-22", 0 ],
									"hidden" : 0,
									"midpoints" : [  ]
								}

							}
, 							{
								"patchline" : 								{
									"source" : [ "obj-8", 3 ],
									"destination" : [ "obj-21", 0 ],
									"hidden" : 0,
									"midpoints" : [  ]
								}

							}
, 							{
								"patchline" : 								{
									"source" : [ "obj-13", 0 ],
									"destination" : [ "obj-37", 0 ],
									"hidden" : 0,
									"midpoints" : [  ]
								}

							}
, 							{
								"patchline" : 								{
									"source" : [ "obj-18", 0 ],
									"destination" : [ "obj-10", 0 ],
									"hidden" : 0,
									"midpoints" : [  ]
								}

							}
, 							{
								"patchline" : 								{
									"source" : [ "obj-20", 0 ],
									"destination" : [ "obj-11", 0 ],
									"hidden" : 0,
									"midpoints" : [  ]
								}

							}
, 							{
								"patchline" : 								{
									"source" : [ "obj-22", 0 ],
									"destination" : [ "obj-12", 0 ],
									"hidden" : 0,
									"midpoints" : [  ]
								}

							}
, 							{
								"patchline" : 								{
									"source" : [ "obj-14", 0 ],
									"destination" : [ "obj-10", 0 ],
									"hidden" : 0,
									"midpoints" : [  ]
								}

							}
, 							{
								"patchline" : 								{
									"source" : [ "obj-14", 0 ],
									"destination" : [ "obj-11", 0 ],
									"hidden" : 0,
									"midpoints" : [  ]
								}

							}
, 							{
								"patchline" : 								{
									"source" : [ "obj-14", 0 ],
									"destination" : [ "obj-12", 0 ],
									"hidden" : 0,
									"midpoints" : [  ]
								}

							}
, 							{
								"patchline" : 								{
									"source" : [ "obj-17", 0 ],
									"destination" : [ "obj-12", 0 ],
									"hidden" : 0,
									"midpoints" : [  ]
								}

							}
, 							{
								"patchline" : 								{
									"source" : [ "obj-17", 0 ],
									"destination" : [ "obj-11", 0 ],
									"hidden" : 0,
									"midpoints" : [  ]
								}

							}
, 							{
								"patchline" : 								{
									"source" : [ "obj-17", 0 ],
									"destination" : [ "obj-37", 0 ],
									"hidden" : 0,
									"midpoints" : [  ]
								}

							}
, 							{
								"patchline" : 								{
									"source" : [ "obj-37", 0 ],
									"destination" : [ "obj-1", 0 ],
									"hidden" : 0,
									"midpoints" : [  ]
								}

							}
, 							{
								"patchline" : 								{
									"source" : [ "obj-10", 0 ],
									"destination" : [ "obj-2", 0 ],
									"hidden" : 0,
									"midpoints" : [  ]
								}

							}
, 							{
								"patchline" : 								{
									"source" : [ "obj-11", 0 ],
									"destination" : [ "obj-3", 0 ],
									"hidden" : 0,
									"midpoints" : [  ]
								}

							}
, 							{
								"patchline" : 								{
									"source" : [ "obj-12", 0 ],
									"destination" : [ "obj-4", 0 ],
									"hidden" : 0,
									"midpoints" : [  ]
								}

							}
, 							{
								"patchline" : 								{
									"source" : [ "obj-19", 0 ],
									"destination" : [ "obj-12", 0 ],
									"hidden" : 0,
									"midpoints" : [  ]
								}

							}
, 							{
								"patchline" : 								{
									"source" : [ "obj-19", 0 ],
									"destination" : [ "obj-10", 0 ],
									"hidden" : 0,
									"midpoints" : [  ]
								}

							}
, 							{
								"patchline" : 								{
									"source" : [ "obj-19", 0 ],
									"destination" : [ "obj-37", 0 ],
									"hidden" : 0,
									"midpoints" : [  ]
								}

							}
, 							{
								"patchline" : 								{
									"source" : [ "obj-21", 0 ],
									"destination" : [ "obj-11", 0 ],
									"hidden" : 0,
									"midpoints" : [  ]
								}

							}
, 							{
								"patchline" : 								{
									"source" : [ "obj-21", 0 ],
									"destination" : [ "obj-10", 0 ],
									"hidden" : 0,
									"midpoints" : [  ]
								}

							}
, 							{
								"patchline" : 								{
									"source" : [ "obj-21", 0 ],
									"destination" : [ "obj-37", 0 ],
									"hidden" : 0,
									"midpoints" : [  ]
								}

							}
, 							{
								"patchline" : 								{
									"source" : [ "obj-23", 0 ],
									"destination" : [ "obj-1", 0 ],
									"hidden" : 0,
									"midpoints" : [  ]
								}

							}
, 							{
								"patchline" : 								{
									"source" : [ "obj-23", 0 ],
									"destination" : [ "obj-2", 0 ],
									"hidden" : 0,
									"midpoints" : [  ]
								}

							}
, 							{
								"patchline" : 								{
									"source" : [ "obj-23", 0 ],
									"destination" : [ "obj-3", 0 ],
									"hidden" : 0,
									"midpoints" : [  ]
								}

							}
, 							{
								"patchline" : 								{
									"source" : [ "obj-23", 0 ],
									"destination" : [ "obj-4", 0 ],
									"hidden" : 0,
									"midpoints" : [  ]
								}

							}
 ]
					}
,
					"saved_object_attributes" : 					{
						"default_fontface" : 0,
						"fontname" : "Arial",
						"default_fontname" : "Arial",
						"globalpatchername" : "",
						"default_fontsize" : 12.0,
						"fontface" : 0,
						"fontsize" : 12.0
					}

				}

			}
, 			{
				"box" : 				{
					"maxclass" : "umenu",
					"items" : [ "alpha", ",", "red", ",", "green", ",", "blue" ],
					"numoutlets" : 3,
					"outlettype" : [ "int", "", "" ],
					"presentation_rect" : [ 232.0, 2.0, 59.0, 18.0 ],
					"id" : "obj-38",
					"fontname" : "Arial",
					"labelclick" : 1,
					"types" : [  ],
					"patching_rect" : [ 474.0, 103.0, 62.0, 18.0 ],
					"presentation" : 1,
					"hidden" : 1,
					"fontsize" : 10.0,
					"numinlets" : 1
				}

			}
, 			{
				"box" : 				{
					"maxclass" : "umenu",
					"varname" : "type",
					"items" : [ "argb", ",", "grey" ],
					"numoutlets" : 3,
					"outlettype" : [ "int", "", "" ],
					"presentation_rect" : [ 133.0, 2.0, 59.0, 18.0 ],
					"id" : "obj-25",
					"fontname" : "Arial",
					"labelclick" : 1,
					"types" : [  ],
					"patching_rect" : [ 608.0, 257.0, 59.0, 18.0 ],
					"presentation" : 1,
					"fontsize" : 10.0,
					"numinlets" : 1
				}

			}
, 			{
				"box" : 				{
					"maxclass" : "newobj",
					"text" : "switch 2",
					"numoutlets" : 1,
					"outlettype" : [ "" ],
					"id" : "obj-24",
					"fontname" : "Arial",
					"patching_rect" : [ 541.0, 323.0, 54.0, 20.0 ],
					"fontsize" : 12.0,
					"numinlets" : 3
				}

			}
, 			{
				"box" : 				{
					"maxclass" : "newobj",
					"text" : "switch 2",
					"numoutlets" : 1,
					"outlettype" : [ "" ],
					"id" : "obj-21",
					"fontname" : "Arial",
					"patching_rect" : [ 474.0, 323.0, 54.0, 20.0 ],
					"fontsize" : 12.0,
					"numinlets" : 3
				}

			}
, 			{
				"box" : 				{
					"maxclass" : "newobj",
					"text" : "switch 2",
					"numoutlets" : 1,
					"outlettype" : [ "" ],
					"id" : "obj-20",
					"fontname" : "Arial",
					"patching_rect" : [ 406.0, 323.0, 54.0, 20.0 ],
					"fontsize" : 12.0,
					"numinlets" : 3
				}

			}
, 			{
				"box" : 				{
					"maxclass" : "newobj",
					"varname" : "u758007742",
					"text" : "autopattr",
					"numoutlets" : 4,
					"outlettype" : [ "", "", "", "" ],
					"id" : "obj-18",
					"fontname" : "Arial",
					"patching_rect" : [ 549.0, 414.0, 59.5, 20.0 ],
					"fontsize" : 12.0,
					"numinlets" : 1,
					"restore" : 					{
						"alpha" : [ 100.0, 0.0, 1.0, 0.0, 1.0, 0, 46.81934, 0.588889, 0, 58.015266, 0.561111, 0, 68.702293, 0.511111, 0, 78.371498, 0.438889, 0, 87.277351, 0.311111, 0, 100.0, 0.0, 0 ],
						"gammaBlue" : [ 100.0, 0.0, 1.0, 0.0, 0.5, 0, 100.0, 0.5, 0 ],
						"gammaGreen" : [ 100.0, 0.0, 1.0, 0.0, 0.5, 0, 100.0, 0.5, 0 ],
						"gammaRed" : [ 100.0, 0.0, 1.0, 0.0, 0.5, 0, 100.0, 0.5, 0 ],
						"resolution" : [ 0 ],
						"type" : [ 1 ]
					}

				}

			}
, 			{
				"box" : 				{
					"maxclass" : "newobj",
					"text" : "t b b",
					"numoutlets" : 2,
					"outlettype" : [ "bang", "bang" ],
					"id" : "obj-19",
					"fontname" : "Arial",
					"patching_rect" : [ 226.0, 43.0, 34.0, 20.0 ],
					"fontsize" : 12.0,
					"numinlets" : 1
				}

			}
, 			{
				"box" : 				{
					"maxclass" : "newobj",
					"text" : "r refresh_GradientEditor",
					"numoutlets" : 1,
					"outlettype" : [ "" ],
					"id" : "obj-14",
					"fontname" : "Arial",
					"patching_rect" : [ 65.0, 7.0, 139.0, 20.0 ],
					"fontsize" : 12.0,
					"numinlets" : 0
				}

			}
, 			{
				"box" : 				{
					"maxclass" : "newobj",
					"text" : "r reset_gradientEditor",
					"numoutlets" : 1,
					"outlettype" : [ "" ],
					"id" : "obj-13",
					"fontname" : "Arial",
					"patching_rect" : [ 226.0, 7.0, 126.0, 20.0 ],
					"fontsize" : 12.0,
					"numinlets" : 0
				}

			}
, 			{
				"box" : 				{
					"maxclass" : "toggle",
					"prototypename" : "Arial9",
					"numoutlets" : 1,
					"outlettype" : [ "int" ],
					"presentation_rect" : [ 141.0, 65.0, 18.0, 18.0 ],
					"id" : "obj-125",
					"patching_rect" : [ 397.0, 407.0, 18.0, 18.0 ],
					"presentation" : 1,
					"hidden" : 1,
					"numinlets" : 1
				}

			}
, 			{
				"box" : 				{
					"maxclass" : "comment",
					"text" : "View",
					"frgb" : [ 1.0, 0.501961, 0.0, 1.0 ],
					"numoutlets" : 0,
					"presentation_rect" : [ 156.0, 69.0, 41.0, 21.0 ],
					"id" : "obj-126",
					"fontname" : "Arial Bold Italic",
					"patching_rect" : [ 386.0, 382.0, 41.0, 21.0 ],
					"presentation" : 1,
					"hidden" : 1,
					"fontsize" : 12.754706,
					"textcolor" : [ 1.0, 0.501961, 0.0, 1.0 ],
					"numinlets" : 1
				}

			}
, 			{
				"box" : 				{
					"maxclass" : "toggle",
					"prototypename" : "Arial9",
					"numoutlets" : 1,
					"outlettype" : [ "int" ],
					"presentation_rect" : [ 206.0, 31.0, 18.0, 18.0 ],
					"id" : "obj-127",
					"patching_rect" : [ 434.0, 407.0, 18.0, 18.0 ],
					"presentation" : 1,
					"hidden" : 1,
					"numinlets" : 1
				}

			}
, 			{
				"box" : 				{
					"maxclass" : "comment",
					"text" : "NoFloat",
					"frgb" : [ 1.0, 0.501961, 0.0, 1.0 ],
					"numoutlets" : 0,
					"presentation_rect" : [ 185.0, 45.0, 58.0, 21.0 ],
					"id" : "obj-130",
					"fontname" : "Arial Bold Italic",
					"patching_rect" : [ 423.0, 382.0, 56.0, 21.0 ],
					"presentation" : 1,
					"hidden" : 1,
					"fontsize" : 12.754706,
					"textcolor" : [ 1.0, 0.501961, 0.0, 1.0 ],
					"numinlets" : 1
				}

			}
, 			{
				"box" : 				{
					"maxclass" : "newobj",
					"text" : "thispatcher",
					"numoutlets" : 2,
					"outlettype" : [ "", "" ],
					"id" : "obj-142",
					"fontname" : "Arial",
					"color" : [ 0.7, 0.7, 0.7, 1.0 ],
					"patching_rect" : [ 397.0, 453.0, 62.0, 18.0 ],
					"fontsize" : 10.435669,
					"numinlets" : 1,
					"save" : [ "#N", "thispatcher", ";", "#Q", "window", "flags", "grow", "close", "zoom", "float", "menu", "minimize", ";", "#Q", "window", "constrain", 50, 50, 32768, 32768, ";", "#Q", "window", "size", 749, 38, 1166, 274, ";", "#Q", "window", "title", ";", "#Q", "window", "exec", ";", "#Q", "savewindow", 1, ";", "#Q", "end", ";" ]
				}

			}
, 			{
				"box" : 				{
					"maxclass" : "newobj",
					"text" : "p View",
					"numoutlets" : 1,
					"outlettype" : [ "" ],
					"id" : "obj-140",
					"fontname" : "Arial",
					"color" : [ 0.7, 0.7, 0.7, 1.0 ],
					"patching_rect" : [ 397.0, 429.0, 56.0, 20.0 ],
					"fontsize" : 11.595187,
					"numinlets" : 2,
					"patcher" : 					{
						"fileversion" : 1,
						"appversion" : 						{
							"major" : 5,
							"minor" : 1,
							"revision" : 9
						}
,
						"rect" : [ 678.0, 592.0, 657.0, 488.0 ],
						"bglocked" : 0,
						"defrect" : [ 678.0, 592.0, 657.0, 488.0 ],
						"openrect" : [ 0.0, 0.0, 0.0, 0.0 ],
						"openinpresentation" : 0,
						"default_fontsize" : 9.0,
						"default_fontface" : 0,
						"default_fontname" : "Arial",
						"gridonopen" : 0,
						"gridsize" : [ 15.0, 15.0 ],
						"gridsnaponopen" : 0,
						"toolbarvisible" : 1,
						"boxanimatetime" : 200,
						"imprint" : 0,
						"enablehscroll" : 1,
						"enablevscroll" : 1,
						"devicewidth" : 0.0,
						"boxes" : [ 							{
								"box" : 								{
									"maxclass" : "newobj",
									"text" : "t l",
									"numoutlets" : 1,
									"outlettype" : [ "" ],
									"id" : "obj-13",
									"fontname" : "Arial",
									"patching_rect" : [ 466.0, 378.0, 19.0, 18.0 ],
									"fontsize" : 10.435669,
									"numinlets" : 1
								}

							}
, 							{
								"box" : 								{
									"maxclass" : "inlet",
									"prototypename" : "Arial9",
									"numoutlets" : 1,
									"outlettype" : [ "int" ],
									"id" : "obj-5",
									"patching_rect" : [ 466.0, 257.0, 18.0, 18.0 ],
									"numinlets" : 0,
									"comment" : ""
								}

							}
, 							{
								"box" : 								{
									"maxclass" : "toggle",
									"prototypename" : "Arial9",
									"numoutlets" : 1,
									"outlettype" : [ "int" ],
									"id" : "obj-6",
									"patching_rect" : [ 466.0, 279.0, 18.0, 18.0 ],
									"numinlets" : 1
								}

							}
, 							{
								"box" : 								{
									"maxclass" : "newobj",
									"text" : "sel 1 0",
									"numoutlets" : 3,
									"outlettype" : [ "bang", "bang", "" ],
									"id" : "obj-8",
									"fontname" : "Arial",
									"patching_rect" : [ 466.0, 301.0, 46.0, 18.0 ],
									"fontsize" : 10.435669,
									"numinlets" : 1
								}

							}
, 							{
								"box" : 								{
									"maxclass" : "message",
									"text" : "savewindow 1",
									"numoutlets" : 1,
									"outlettype" : [ "" ],
									"id" : "obj-1",
									"fontname" : "Arial",
									"patching_rect" : [ 362.0, 428.0, 76.0, 16.0 ],
									"fontsize" : 10.435669,
									"numinlets" : 2
								}

							}
, 							{
								"box" : 								{
									"maxclass" : "newobj",
									"text" : "qlim",
									"numoutlets" : 1,
									"outlettype" : [ "" ],
									"id" : "obj-63",
									"fontname" : "Arial",
									"patching_rect" : [ 43.0, 301.0, 32.5, 18.0 ],
									"fontsize" : 10.435669,
									"numinlets" : 2
								}

							}
, 							{
								"box" : 								{
									"maxclass" : "newobj",
									"text" : "qlim",
									"numoutlets" : 1,
									"outlettype" : [ "" ],
									"id" : "obj-62",
									"fontname" : "Arial",
									"patching_rect" : [ 283.0, 301.0, 32.5, 18.0 ],
									"fontsize" : 10.435669,
									"numinlets" : 2
								}

							}
, 							{
								"box" : 								{
									"maxclass" : "newobj",
									"text" : "t l",
									"numoutlets" : 1,
									"outlettype" : [ "" ],
									"id" : "obj-37",
									"fontname" : "Arial",
									"patching_rect" : [ 43.0, 378.0, 19.0, 18.0 ],
									"fontsize" : 10.435669,
									"numinlets" : 1
								}

							}
, 							{
								"box" : 								{
									"maxclass" : "message",
									"text" : "window flags nofloat, window exec",
									"numoutlets" : 1,
									"outlettype" : [ "" ],
									"id" : "obj-38",
									"fontname" : "Arial",
									"patching_rect" : [ 466.0, 323.0, 170.0, 16.0 ],
									"fontsize" : 10.435669,
									"numinlets" : 2
								}

							}
, 							{
								"box" : 								{
									"maxclass" : "message",
									"text" : "window exec",
									"numoutlets" : 1,
									"outlettype" : [ "" ],
									"id" : "obj-39",
									"fontname" : "Arial",
									"patching_rect" : [ 43.0, 323.0, 70.0, 16.0 ],
									"fontsize" : 10.435669,
									"numinlets" : 2
								}

							}
, 							{
								"box" : 								{
									"maxclass" : "newobj",
									"text" : "t b l b",
									"numoutlets" : 3,
									"outlettype" : [ "bang", "", "bang" ],
									"id" : "obj-40",
									"fontname" : "Arial",
									"patching_rect" : [ 43.0, 279.0, 46.0, 18.0 ],
									"fontsize" : 10.435669,
									"numinlets" : 1
								}

							}
, 							{
								"box" : 								{
									"maxclass" : "message",
									"text" : "window flags grow, window flags zoom",
									"linecount" : 2,
									"numoutlets" : 1,
									"outlettype" : [ "" ],
									"id" : "obj-42",
									"fontname" : "Arial",
									"patching_rect" : [ 70.0, 343.0, 100.0, 28.0 ],
									"fontsize" : 10.435669,
									"numinlets" : 2
								}

							}
, 							{
								"box" : 								{
									"maxclass" : "newobj",
									"text" : "prepend window size",
									"numoutlets" : 1,
									"outlettype" : [ "" ],
									"id" : "obj-43",
									"fontname" : "Arial",
									"patching_rect" : [ 43.0, 257.0, 108.0, 18.0 ],
									"fontsize" : 10.435669,
									"numinlets" : 1
								}

							}
, 							{
								"box" : 								{
									"maxclass" : "comment",
									"text" : "Ymax",
									"numoutlets" : 0,
									"id" : "obj-45",
									"fontname" : "Arial",
									"patching_rect" : [ 208.0, 186.0, 37.0, 18.0 ],
									"fontsize" : 10.435669,
									"numinlets" : 1
								}

							}
, 							{
								"box" : 								{
									"maxclass" : "comment",
									"text" : "Xmax",
									"numoutlets" : 0,
									"id" : "obj-46",
									"fontname" : "Arial",
									"patching_rect" : [ 157.0, 186.0, 37.0, 18.0 ],
									"fontsize" : 10.435669,
									"numinlets" : 1
								}

							}
, 							{
								"box" : 								{
									"maxclass" : "comment",
									"text" : "Ymin",
									"numoutlets" : 0,
									"id" : "obj-47",
									"fontname" : "Arial",
									"patching_rect" : [ 105.0, 186.0, 34.0, 18.0 ],
									"fontsize" : 10.435669,
									"numinlets" : 1
								}

							}
, 							{
								"box" : 								{
									"maxclass" : "comment",
									"text" : "Xmin",
									"numoutlets" : 0,
									"id" : "obj-48",
									"fontname" : "Arial",
									"patching_rect" : [ 54.0, 186.0, 34.0, 18.0 ],
									"fontsize" : 10.435669,
									"numinlets" : 1
								}

							}
, 							{
								"box" : 								{
									"maxclass" : "comment",
									"text" : "pref.",
									"numoutlets" : 0,
									"id" : "obj-49",
									"fontname" : "Arial",
									"patching_rect" : [ 171.0, 147.0, 31.0, 18.0 ],
									"fontsize" : 10.435669,
									"numinlets" : 1
								}

							}
, 							{
								"box" : 								{
									"maxclass" : "newobj",
									"text" : "unpack 0 0 0 0",
									"numoutlets" : 4,
									"outlettype" : [ "int", "int", "int", "int" ],
									"id" : "obj-51",
									"fontname" : "Arial",
									"patching_rect" : [ 43.0, 167.0, 173.0, 18.0 ],
									"fontsize" : 10.435669,
									"numinlets" : 1
								}

							}
, 							{
								"box" : 								{
									"maxclass" : "message",
									"text" : "749 38 1170 272",
									"numoutlets" : 1,
									"outlettype" : [ "" ],
									"id" : "obj-52",
									"fontname" : "Arial",
									"patching_rect" : [ 43.0, 147.0, 127.0, 16.0 ],
									"fontsize" : 10.435669,
									"numinlets" : 2
								}

							}
, 							{
								"box" : 								{
									"maxclass" : "number",
									"numoutlets" : 2,
									"outlettype" : [ "int", "bang" ],
									"id" : "obj-53",
									"fontname" : "Arial",
									"patching_rect" : [ 197.0, 205.0, 50.0, 18.0 ],
									"fontsize" : 10.435669,
									"numinlets" : 1
								}

							}
, 							{
								"box" : 								{
									"maxclass" : "number",
									"numoutlets" : 2,
									"outlettype" : [ "int", "bang" ],
									"id" : "obj-54",
									"fontname" : "Arial",
									"patching_rect" : [ 146.0, 205.0, 50.0, 18.0 ],
									"fontsize" : 10.435669,
									"numinlets" : 1
								}

							}
, 							{
								"box" : 								{
									"maxclass" : "newobj",
									"text" : "pak 0 0 0 0",
									"numoutlets" : 1,
									"outlettype" : [ "" ],
									"id" : "obj-55",
									"fontname" : "Arial",
									"patching_rect" : [ 43.0, 227.0, 173.0, 18.0 ],
									"fontsize" : 10.435669,
									"numinlets" : 4
								}

							}
, 							{
								"box" : 								{
									"maxclass" : "number",
									"numoutlets" : 2,
									"outlettype" : [ "int", "bang" ],
									"id" : "obj-56",
									"fontname" : "Arial",
									"patching_rect" : [ 94.0, 205.0, 51.0, 18.0 ],
									"fontsize" : 10.435669,
									"numinlets" : 1
								}

							}
, 							{
								"box" : 								{
									"maxclass" : "number",
									"numoutlets" : 2,
									"outlettype" : [ "int", "bang" ],
									"id" : "obj-57",
									"fontname" : "Arial",
									"patching_rect" : [ 43.0, 205.0, 50.0, 18.0 ],
									"fontsize" : 10.435669,
									"numinlets" : 1
								}

							}
, 							{
								"box" : 								{
									"maxclass" : "newobj",
									"text" : "t l",
									"numoutlets" : 1,
									"outlettype" : [ "" ],
									"id" : "obj-35",
									"fontname" : "Arial",
									"patching_rect" : [ 283.0, 378.0, 19.0, 18.0 ],
									"fontsize" : 10.435669,
									"numinlets" : 1
								}

							}
, 							{
								"box" : 								{
									"maxclass" : "message",
									"text" : "window flags float, window exec",
									"numoutlets" : 1,
									"outlettype" : [ "" ],
									"id" : "obj-32",
									"fontname" : "Arial",
									"patching_rect" : [ 480.0, 343.0, 158.0, 16.0 ],
									"fontsize" : 10.435669,
									"numinlets" : 2
								}

							}
, 							{
								"box" : 								{
									"maxclass" : "message",
									"text" : "window exec",
									"numoutlets" : 1,
									"outlettype" : [ "" ],
									"id" : "obj-31",
									"fontname" : "Arial",
									"patching_rect" : [ 283.0, 323.0, 70.0, 16.0 ],
									"fontsize" : 10.435669,
									"numinlets" : 2
								}

							}
, 							{
								"box" : 								{
									"maxclass" : "newobj",
									"text" : "t b l b",
									"numoutlets" : 3,
									"outlettype" : [ "bang", "", "bang" ],
									"id" : "obj-30",
									"fontname" : "Arial",
									"patching_rect" : [ 283.0, 279.0, 46.0, 18.0 ],
									"fontsize" : 10.435669,
									"numinlets" : 1
								}

							}
, 							{
								"box" : 								{
									"maxclass" : "message",
									"text" : "window flags nogrow, window flags nozoom",
									"linecount" : 2,
									"numoutlets" : 1,
									"outlettype" : [ "" ],
									"id" : "obj-29",
									"fontname" : "Arial",
									"patching_rect" : [ 310.0, 343.0, 113.0, 28.0 ],
									"fontsize" : 10.435669,
									"numinlets" : 2
								}

							}
, 							{
								"box" : 								{
									"maxclass" : "newobj",
									"text" : "prepend window size",
									"numoutlets" : 1,
									"outlettype" : [ "" ],
									"id" : "obj-28",
									"fontname" : "Arial",
									"patching_rect" : [ 283.0, 257.0, 108.0, 18.0 ],
									"fontsize" : 10.435669,
									"numinlets" : 1
								}

							}
, 							{
								"box" : 								{
									"maxclass" : "comment",
									"text" : "Ymax",
									"numoutlets" : 0,
									"id" : "obj-27",
									"fontname" : "Arial",
									"patching_rect" : [ 448.0, 186.0, 37.0, 18.0 ],
									"fontsize" : 10.435669,
									"numinlets" : 1
								}

							}
, 							{
								"box" : 								{
									"maxclass" : "comment",
									"text" : "Xmax",
									"numoutlets" : 0,
									"id" : "obj-26",
									"fontname" : "Arial",
									"patching_rect" : [ 397.0, 186.0, 37.0, 18.0 ],
									"fontsize" : 10.435669,
									"numinlets" : 1
								}

							}
, 							{
								"box" : 								{
									"maxclass" : "comment",
									"text" : "Ymin",
									"numoutlets" : 0,
									"id" : "obj-23",
									"fontname" : "Arial",
									"patching_rect" : [ 345.0, 186.0, 34.0, 18.0 ],
									"fontsize" : 10.435669,
									"numinlets" : 1
								}

							}
, 							{
								"box" : 								{
									"maxclass" : "comment",
									"text" : "Xmin",
									"numoutlets" : 0,
									"id" : "obj-22",
									"fontname" : "Arial",
									"patching_rect" : [ 294.0, 186.0, 34.0, 18.0 ],
									"fontsize" : 10.435669,
									"numinlets" : 1
								}

							}
, 							{
								"box" : 								{
									"maxclass" : "comment",
									"text" : "pref.",
									"numoutlets" : 0,
									"id" : "obj-20",
									"fontname" : "Arial",
									"patching_rect" : [ 411.0, 147.0, 31.0, 18.0 ],
									"fontsize" : 10.435669,
									"numinlets" : 1
								}

							}
, 							{
								"box" : 								{
									"maxclass" : "newobj",
									"text" : "unpack 0 0 0 0",
									"numoutlets" : 4,
									"outlettype" : [ "int", "int", "int", "int" ],
									"id" : "obj-18",
									"fontname" : "Arial",
									"patching_rect" : [ 283.0, 167.0, 173.0, 18.0 ],
									"fontsize" : 10.435669,
									"numinlets" : 1
								}

							}
, 							{
								"box" : 								{
									"maxclass" : "message",
									"text" : "290 40 1206 516",
									"numoutlets" : 1,
									"outlettype" : [ "" ],
									"id" : "obj-16",
									"fontname" : "Arial",
									"patching_rect" : [ 283.0, 147.0, 127.0, 16.0 ],
									"fontsize" : 10.435669,
									"numinlets" : 2
								}

							}
, 							{
								"box" : 								{
									"maxclass" : "number",
									"numoutlets" : 2,
									"outlettype" : [ "int", "bang" ],
									"id" : "obj-12",
									"fontname" : "Arial",
									"patching_rect" : [ 437.0, 205.0, 50.0, 18.0 ],
									"fontsize" : 10.435669,
									"numinlets" : 1
								}

							}
, 							{
								"box" : 								{
									"maxclass" : "number",
									"numoutlets" : 2,
									"outlettype" : [ "int", "bang" ],
									"id" : "obj-15",
									"fontname" : "Arial",
									"patching_rect" : [ 386.0, 205.0, 50.0, 18.0 ],
									"fontsize" : 10.435669,
									"numinlets" : 1
								}

							}
, 							{
								"box" : 								{
									"maxclass" : "newobj",
									"text" : "pak 0 0 0 0",
									"numoutlets" : 1,
									"outlettype" : [ "" ],
									"id" : "obj-7",
									"fontname" : "Arial",
									"patching_rect" : [ 283.0, 227.0, 173.0, 18.0 ],
									"fontsize" : 10.435669,
									"numinlets" : 4
								}

							}
, 							{
								"box" : 								{
									"maxclass" : "number",
									"numoutlets" : 2,
									"outlettype" : [ "int", "bang" ],
									"id" : "obj-4",
									"fontname" : "Arial",
									"patching_rect" : [ 334.0, 205.0, 51.0, 18.0 ],
									"fontsize" : 10.435669,
									"numinlets" : 1
								}

							}
, 							{
								"box" : 								{
									"maxclass" : "number",
									"numoutlets" : 2,
									"outlettype" : [ "int", "bang" ],
									"id" : "obj-3",
									"fontname" : "Arial",
									"patching_rect" : [ 283.0, 205.0, 50.0, 18.0 ],
									"fontsize" : 10.435669,
									"numinlets" : 1
								}

							}
, 							{
								"box" : 								{
									"maxclass" : "comment",
									"text" : "view",
									"numoutlets" : 0,
									"id" : "obj-11",
									"fontname" : "Arial",
									"patching_rect" : [ 284.0, 69.0, 31.0, 18.0 ],
									"fontsize" : 10.435669,
									"numinlets" : 1
								}

							}
, 							{
								"box" : 								{
									"maxclass" : "message",
									"text" : "presentation $1",
									"numoutlets" : 1,
									"outlettype" : [ "" ],
									"id" : "obj-10",
									"fontname" : "Arial",
									"patching_rect" : [ 250.0, 90.0, 82.0, 16.0 ],
									"fontsize" : 10.435669,
									"numinlets" : 2
								}

							}
, 							{
								"box" : 								{
									"maxclass" : "newobj",
									"text" : "== 0",
									"numoutlets" : 1,
									"outlettype" : [ "int" ],
									"id" : "obj-9",
									"fontname" : "Arial",
									"patching_rect" : [ 250.0, 69.0, 32.5, 18.0 ],
									"fontsize" : 10.435669,
									"numinlets" : 2
								}

							}
, 							{
								"box" : 								{
									"maxclass" : "inlet",
									"prototypename" : "Arial9",
									"numoutlets" : 1,
									"outlettype" : [ "int" ],
									"id" : "obj-44",
									"patching_rect" : [ 153.0, 17.0, 18.0, 18.0 ],
									"numinlets" : 0,
									"comment" : ""
								}

							}
, 							{
								"box" : 								{
									"maxclass" : "toggle",
									"prototypename" : "Arial9",
									"numoutlets" : 1,
									"outlettype" : [ "int" ],
									"id" : "obj-41",
									"patching_rect" : [ 153.0, 52.0, 18.0, 18.0 ],
									"numinlets" : 1
								}

							}
, 							{
								"box" : 								{
									"maxclass" : "newobj",
									"text" : "sel 1 0",
									"numoutlets" : 3,
									"outlettype" : [ "bang", "bang", "" ],
									"id" : "obj-25",
									"fontname" : "Arial",
									"patching_rect" : [ 153.0, 74.0, 46.0, 18.0 ],
									"fontsize" : 10.435669,
									"numinlets" : 1
								}

							}
, 							{
								"box" : 								{
									"maxclass" : "outlet",
									"prototypename" : "Arial9",
									"numoutlets" : 0,
									"id" : "obj-21",
									"patching_rect" : [ 250.0, 443.0, 18.0, 18.0 ],
									"numinlets" : 1,
									"comment" : ""
								}

							}
 ],
						"lines" : [ 							{
								"patchline" : 								{
									"source" : [ "obj-41", 0 ],
									"destination" : [ "obj-25", 0 ],
									"hidden" : 0,
									"midpoints" : [  ]
								}

							}
, 							{
								"patchline" : 								{
									"source" : [ "obj-44", 0 ],
									"destination" : [ "obj-41", 0 ],
									"hidden" : 0,
									"midpoints" : [  ]
								}

							}
, 							{
								"patchline" : 								{
									"source" : [ "obj-41", 0 ],
									"destination" : [ "obj-9", 0 ],
									"hidden" : 0,
									"midpoints" : [  ]
								}

							}
, 							{
								"patchline" : 								{
									"source" : [ "obj-9", 0 ],
									"destination" : [ "obj-10", 0 ],
									"hidden" : 0,
									"midpoints" : [  ]
								}

							}
, 							{
								"patchline" : 								{
									"source" : [ "obj-10", 0 ],
									"destination" : [ "obj-21", 0 ],
									"hidden" : 0,
									"midpoints" : [  ]
								}

							}
, 							{
								"patchline" : 								{
									"source" : [ "obj-3", 0 ],
									"destination" : [ "obj-7", 0 ],
									"hidden" : 0,
									"midpoints" : [  ]
								}

							}
, 							{
								"patchline" : 								{
									"source" : [ "obj-4", 0 ],
									"destination" : [ "obj-7", 1 ],
									"hidden" : 0,
									"midpoints" : [  ]
								}

							}
, 							{
								"patchline" : 								{
									"source" : [ "obj-15", 0 ],
									"destination" : [ "obj-7", 2 ],
									"hidden" : 0,
									"midpoints" : [  ]
								}

							}
, 							{
								"patchline" : 								{
									"source" : [ "obj-12", 0 ],
									"destination" : [ "obj-7", 3 ],
									"hidden" : 0,
									"midpoints" : [  ]
								}

							}
, 							{
								"patchline" : 								{
									"source" : [ "obj-18", 0 ],
									"destination" : [ "obj-3", 0 ],
									"hidden" : 0,
									"midpoints" : [  ]
								}

							}
, 							{
								"patchline" : 								{
									"source" : [ "obj-18", 1 ],
									"destination" : [ "obj-4", 0 ],
									"hidden" : 0,
									"midpoints" : [  ]
								}

							}
, 							{
								"patchline" : 								{
									"source" : [ "obj-18", 2 ],
									"destination" : [ "obj-15", 0 ],
									"hidden" : 0,
									"midpoints" : [  ]
								}

							}
, 							{
								"patchline" : 								{
									"source" : [ "obj-18", 3 ],
									"destination" : [ "obj-12", 0 ],
									"hidden" : 0,
									"midpoints" : [  ]
								}

							}
, 							{
								"patchline" : 								{
									"source" : [ "obj-16", 0 ],
									"destination" : [ "obj-18", 0 ],
									"hidden" : 0,
									"midpoints" : [  ]
								}

							}
, 							{
								"patchline" : 								{
									"source" : [ "obj-7", 0 ],
									"destination" : [ "obj-16", 1 ],
									"hidden" : 0,
									"midpoints" : [ 292.5, 251.0, 274.0, 251.0, 274.0, 139.0, 400.5, 139.0 ]
								}

							}
, 							{
								"patchline" : 								{
									"source" : [ "obj-31", 0 ],
									"destination" : [ "obj-35", 0 ],
									"hidden" : 0,
									"midpoints" : [  ]
								}

							}
, 							{
								"patchline" : 								{
									"source" : [ "obj-35", 0 ],
									"destination" : [ "obj-21", 0 ],
									"hidden" : 0,
									"midpoints" : [  ]
								}

							}
, 							{
								"patchline" : 								{
									"source" : [ "obj-39", 0 ],
									"destination" : [ "obj-37", 0 ],
									"hidden" : 0,
									"midpoints" : [  ]
								}

							}
, 							{
								"patchline" : 								{
									"source" : [ "obj-55", 0 ],
									"destination" : [ "obj-52", 1 ],
									"hidden" : 0,
									"midpoints" : [ 52.5, 251.0, 34.0, 251.0, 34.0, 139.0, 160.5, 139.0 ]
								}

							}
, 							{
								"patchline" : 								{
									"source" : [ "obj-52", 0 ],
									"destination" : [ "obj-51", 0 ],
									"hidden" : 0,
									"midpoints" : [  ]
								}

							}
, 							{
								"patchline" : 								{
									"source" : [ "obj-51", 3 ],
									"destination" : [ "obj-53", 0 ],
									"hidden" : 0,
									"midpoints" : [  ]
								}

							}
, 							{
								"patchline" : 								{
									"source" : [ "obj-51", 2 ],
									"destination" : [ "obj-54", 0 ],
									"hidden" : 0,
									"midpoints" : [  ]
								}

							}
, 							{
								"patchline" : 								{
									"source" : [ "obj-51", 1 ],
									"destination" : [ "obj-56", 0 ],
									"hidden" : 0,
									"midpoints" : [  ]
								}

							}
, 							{
								"patchline" : 								{
									"source" : [ "obj-51", 0 ],
									"destination" : [ "obj-57", 0 ],
									"hidden" : 0,
									"midpoints" : [  ]
								}

							}
, 							{
								"patchline" : 								{
									"source" : [ "obj-53", 0 ],
									"destination" : [ "obj-55", 3 ],
									"hidden" : 0,
									"midpoints" : [  ]
								}

							}
, 							{
								"patchline" : 								{
									"source" : [ "obj-54", 0 ],
									"destination" : [ "obj-55", 2 ],
									"hidden" : 0,
									"midpoints" : [  ]
								}

							}
, 							{
								"patchline" : 								{
									"source" : [ "obj-56", 0 ],
									"destination" : [ "obj-55", 1 ],
									"hidden" : 0,
									"midpoints" : [  ]
								}

							}
, 							{
								"patchline" : 								{
									"source" : [ "obj-57", 0 ],
									"destination" : [ "obj-55", 0 ],
									"hidden" : 0,
									"midpoints" : [  ]
								}

							}
, 							{
								"patchline" : 								{
									"source" : [ "obj-37", 0 ],
									"destination" : [ "obj-21", 0 ],
									"hidden" : 0,
									"midpoints" : [  ]
								}

							}
, 							{
								"patchline" : 								{
									"source" : [ "obj-55", 0 ],
									"destination" : [ "obj-43", 0 ],
									"hidden" : 0,
									"midpoints" : [  ]
								}

							}
, 							{
								"patchline" : 								{
									"source" : [ "obj-7", 0 ],
									"destination" : [ "obj-28", 0 ],
									"hidden" : 0,
									"midpoints" : [  ]
								}

							}
, 							{
								"patchline" : 								{
									"source" : [ "obj-62", 0 ],
									"destination" : [ "obj-31", 0 ],
									"hidden" : 0,
									"midpoints" : [  ]
								}

							}
, 							{
								"patchline" : 								{
									"source" : [ "obj-63", 0 ],
									"destination" : [ "obj-39", 0 ],
									"hidden" : 0,
									"midpoints" : [  ]
								}

							}
, 							{
								"patchline" : 								{
									"source" : [ "obj-25", 0 ],
									"destination" : [ "obj-52", 0 ],
									"hidden" : 0,
									"midpoints" : [  ]
								}

							}
, 							{
								"patchline" : 								{
									"source" : [ "obj-25", 1 ],
									"destination" : [ "obj-16", 0 ],
									"hidden" : 0,
									"midpoints" : [  ]
								}

							}
, 							{
								"patchline" : 								{
									"source" : [ "obj-1", 0 ],
									"destination" : [ "obj-21", 0 ],
									"hidden" : 0,
									"midpoints" : [  ]
								}

							}
, 							{
								"patchline" : 								{
									"source" : [ "obj-30", 0 ],
									"destination" : [ "obj-62", 0 ],
									"hidden" : 0,
									"midpoints" : [  ]
								}

							}
, 							{
								"patchline" : 								{
									"source" : [ "obj-30", 1 ],
									"destination" : [ "obj-35", 0 ],
									"hidden" : 0,
									"midpoints" : [  ]
								}

							}
, 							{
								"patchline" : 								{
									"source" : [ "obj-28", 0 ],
									"destination" : [ "obj-30", 0 ],
									"hidden" : 0,
									"midpoints" : [  ]
								}

							}
, 							{
								"patchline" : 								{
									"source" : [ "obj-5", 0 ],
									"destination" : [ "obj-6", 0 ],
									"hidden" : 0,
									"midpoints" : [  ]
								}

							}
, 							{
								"patchline" : 								{
									"source" : [ "obj-6", 0 ],
									"destination" : [ "obj-8", 0 ],
									"hidden" : 0,
									"midpoints" : [  ]
								}

							}
, 							{
								"patchline" : 								{
									"source" : [ "obj-8", 0 ],
									"destination" : [ "obj-38", 0 ],
									"hidden" : 0,
									"midpoints" : [  ]
								}

							}
, 							{
								"patchline" : 								{
									"source" : [ "obj-40", 0 ],
									"destination" : [ "obj-63", 0 ],
									"hidden" : 0,
									"midpoints" : [  ]
								}

							}
, 							{
								"patchline" : 								{
									"source" : [ "obj-43", 0 ],
									"destination" : [ "obj-40", 0 ],
									"hidden" : 0,
									"midpoints" : [  ]
								}

							}
, 							{
								"patchline" : 								{
									"source" : [ "obj-40", 1 ],
									"destination" : [ "obj-37", 0 ],
									"hidden" : 0,
									"midpoints" : [  ]
								}

							}
, 							{
								"patchline" : 								{
									"source" : [ "obj-8", 1 ],
									"destination" : [ "obj-32", 0 ],
									"hidden" : 0,
									"midpoints" : [  ]
								}

							}
, 							{
								"patchline" : 								{
									"source" : [ "obj-38", 0 ],
									"destination" : [ "obj-13", 0 ],
									"hidden" : 0,
									"midpoints" : [  ]
								}

							}
, 							{
								"patchline" : 								{
									"source" : [ "obj-32", 0 ],
									"destination" : [ "obj-13", 0 ],
									"hidden" : 0,
									"midpoints" : [  ]
								}

							}
, 							{
								"patchline" : 								{
									"source" : [ "obj-13", 0 ],
									"destination" : [ "obj-21", 0 ],
									"hidden" : 0,
									"midpoints" : [  ]
								}

							}
, 							{
								"patchline" : 								{
									"source" : [ "obj-40", 2 ],
									"destination" : [ "obj-42", 0 ],
									"hidden" : 0,
									"midpoints" : [  ]
								}

							}
, 							{
								"patchline" : 								{
									"source" : [ "obj-42", 0 ],
									"destination" : [ "obj-37", 0 ],
									"hidden" : 0,
									"midpoints" : [  ]
								}

							}
, 							{
								"patchline" : 								{
									"source" : [ "obj-30", 2 ],
									"destination" : [ "obj-29", 0 ],
									"hidden" : 0,
									"midpoints" : [  ]
								}

							}
, 							{
								"patchline" : 								{
									"source" : [ "obj-29", 0 ],
									"destination" : [ "obj-35", 0 ],
									"hidden" : 0,
									"midpoints" : [  ]
								}

							}
 ]
					}
,
					"saved_object_attributes" : 					{
						"default_fontface" : 0,
						"fontname" : "Arial",
						"default_fontname" : "Arial",
						"globalpatchername" : "",
						"default_fontsize" : 9.0,
						"fontface" : 0,
						"fontsize" : 9.0
					}

				}

			}
, 			{
				"box" : 				{
					"maxclass" : "newobj",
					"text" : "onecopy",
					"numoutlets" : 0,
					"id" : "obj-93",
					"fontname" : "Arial",
					"color" : [ 0.7, 0.7, 0.7, 1.0 ],
					"patching_rect" : [ 397.0, 474.0, 48.0, 18.0 ],
					"fontsize" : 10.0,
					"numinlets" : 1
				}

			}
, 			{
				"box" : 				{
					"maxclass" : "newobj",
					"text" : "loadbang",
					"numoutlets" : 1,
					"outlettype" : [ "bang" ],
					"id" : "obj-12",
					"fontname" : "Arial",
					"patching_rect" : [ 291.0, 410.0, 60.0, 20.0 ],
					"fontsize" : 12.0,
					"numinlets" : 1
				}

			}
, 			{
				"box" : 				{
					"maxclass" : "message",
					"text" : "title #1",
					"numoutlets" : 1,
					"outlettype" : [ "" ],
					"id" : "obj-11",
					"fontname" : "Arial",
					"patching_rect" : [ 291.0, 435.0, 46.0, 18.0 ],
					"fontsize" : 12.0,
					"numinlets" : 2
				}

			}
, 			{
				"box" : 				{
					"maxclass" : "newobj",
					"text" : "thispatcher",
					"numoutlets" : 2,
					"outlettype" : [ "", "" ],
					"id" : "obj-1",
					"fontname" : "Arial",
					"patching_rect" : [ 291.0, 458.0, 69.0, 20.0 ],
					"fontsize" : 12.0,
					"numinlets" : 1,
					"save" : [ "#N", "thispatcher", ";", "#Q", "end", ";" ]
				}

			}
, 			{
				"box" : 				{
					"maxclass" : "button",
					"numoutlets" : 1,
					"outlettype" : [ "bang" ],
					"id" : "obj-29",
					"patching_rect" : [ 92.0, 456.0, 20.0, 20.0 ],
					"numinlets" : 1
				}

			}
, 			{
				"box" : 				{
					"maxclass" : "newobj",
					"text" : "r resendGradientMatrix",
					"numoutlets" : 1,
					"outlettype" : [ "" ],
					"id" : "obj-27",
					"fontname" : "Arial",
					"patching_rect" : [ 92.0, 431.0, 133.0, 20.0 ],
					"fontsize" : 12.0,
					"numinlets" : 0
				}

			}
, 			{
				"box" : 				{
					"maxclass" : "newobj",
					"text" : "* 255.",
					"numoutlets" : 1,
					"outlettype" : [ "float" ],
					"id" : "obj-10",
					"fontname" : "Arial",
					"patching_rect" : [ 474.0, 269.0, 42.0, 20.0 ],
					"fontsize" : 12.0,
					"numinlets" : 2
				}

			}
, 			{
				"box" : 				{
					"maxclass" : "newobj",
					"text" : "* 255.",
					"numoutlets" : 1,
					"outlettype" : [ "float" ],
					"id" : "obj-9",
					"fontname" : "Arial",
					"patching_rect" : [ 358.0, 269.0, 42.0, 20.0 ],
					"fontsize" : 12.0,
					"numinlets" : 2
				}

			}
, 			{
				"box" : 				{
					"maxclass" : "newobj",
					"text" : "* 255.",
					"numoutlets" : 1,
					"outlettype" : [ "float" ],
					"id" : "obj-8",
					"fontname" : "Arial",
					"patching_rect" : [ 241.0, 269.0, 42.0, 20.0 ],
					"fontsize" : 12.0,
					"numinlets" : 2
				}

			}
, 			{
				"box" : 				{
					"maxclass" : "newobj",
					"text" : "- 1",
					"numoutlets" : 1,
					"outlettype" : [ "int" ],
					"id" : "obj-3",
					"fontname" : "Arial",
					"patching_rect" : [ 67.0, 216.0, 32.5, 20.0 ],
					"fontsize" : 12.0,
					"numinlets" : 2
				}

			}
, 			{
				"box" : 				{
					"maxclass" : "inlet",
					"numoutlets" : 1,
					"outlettype" : [ "" ],
					"id" : "obj-2",
					"patching_rect" : [ 37.0, 7.0, 25.0, 25.0 ],
					"numinlets" : 0,
					"comment" : ""
				}

			}
, 			{
				"box" : 				{
					"maxclass" : "button",
					"numoutlets" : 1,
					"outlettype" : [ "bang" ],
					"id" : "obj-32",
					"patching_rect" : [ 37.0, 82.0, 20.0, 20.0 ],
					"numinlets" : 1
				}

			}
, 			{
				"box" : 				{
					"maxclass" : "newobj",
					"text" : "pack setcell i 0 val i i i i",
					"numoutlets" : 1,
					"outlettype" : [ "" ],
					"id" : "obj-22",
					"fontname" : "Arial",
					"patching_rect" : [ 70.0, 348.0, 490.0, 20.0 ],
					"fontsize" : 12.0,
					"numinlets" : 8
				}

			}
, 			{
				"box" : 				{
					"maxclass" : "newobj",
					"text" : "* 255.",
					"numoutlets" : 1,
					"outlettype" : [ "float" ],
					"id" : "obj-23",
					"fontname" : "Arial",
					"patching_rect" : [ 125.0, 270.0, 42.0, 20.0 ],
					"fontsize" : 12.0,
					"numinlets" : 2
				}

			}
, 			{
				"box" : 				{
					"maxclass" : "newobj",
					"text" : "uzi 100",
					"numoutlets" : 3,
					"outlettype" : [ "bang", "bang", "int" ],
					"id" : "obj-26",
					"fontname" : "Arial",
					"patching_rect" : [ 37.0, 112.0, 49.0, 20.0 ],
					"fontsize" : 12.0,
					"numinlets" : 2
				}

			}
, 			{
				"box" : 				{
					"maxclass" : "newobj",
					"text" : "jit.matrix 4 char 100 1",
					"numoutlets" : 2,
					"outlettype" : [ "jit_matrix", "" ],
					"id" : "obj-28",
					"fontname" : "Arial",
					"patching_rect" : [ 49.0, 379.0, 125.0, 20.0 ],
					"fontsize" : 12.0,
					"numinlets" : 1
				}

			}
, 			{
				"box" : 				{
					"maxclass" : "outlet",
					"numoutlets" : 0,
					"id" : "obj-17",
					"patching_rect" : [ 49.0, 424.0, 25.0, 25.0 ],
					"numinlets" : 1,
					"comment" : ""
				}

			}
, 			{
				"box" : 				{
					"maxclass" : "function",
					"varname" : "gammaBlue",
					"numoutlets" : 4,
					"domain" : 100.0,
					"outlettype" : [ "float", "", "", "bang" ],
					"presentation_rect" : [ 7.0, 23.0, 405.0, 205.0 ],
					"bordercolor" : [ 0.0, 0.0, 1.0, 1.0 ],
					"id" : "obj-7",
					"background" : 1,
					"bgcolor" : [ 0.992157, 0.992157, 0.992157, 0.0 ],
					"patching_rect" : [ 474.0, 154.0, 105.0, 105.0 ],
					"linecolor" : [ 0.019608, 0.019608, 1.0, 1.0 ],
					"presentation" : 1,
					"pointcolor" : [ 0.0, 0.0, 0.0, 1.0 ],
					"hidden" : 1,
					"numinlets" : 1,
					"addpoints" : [ 0.0, 0.5, 0, 100.0, 0.5, 0 ]
				}

			}
, 			{
				"box" : 				{
					"maxclass" : "function",
					"varname" : "gammaGreen",
					"numoutlets" : 4,
					"domain" : 100.0,
					"outlettype" : [ "float", "", "", "bang" ],
					"presentation_rect" : [ 7.0, 23.0, 405.0, 205.0 ],
					"bordercolor" : [ 0.05098, 1.0, 0.0, 1.0 ],
					"id" : "obj-5",
					"background" : 1,
					"bgcolor" : [ 1.0, 1.0, 1.0, 0.0 ],
					"patching_rect" : [ 358.0, 154.0, 105.0, 105.0 ],
					"linecolor" : [ 0.117647, 1.0, 0.019608, 1.0 ],
					"presentation" : 1,
					"pointcolor" : [ 0.0, 0.0, 0.0, 1.0 ],
					"hidden" : 1,
					"numinlets" : 1,
					"addpoints" : [ 0.0, 0.5, 0, 100.0, 0.5, 0 ]
				}

			}
, 			{
				"box" : 				{
					"maxclass" : "function",
					"varname" : "alpha",
					"numoutlets" : 4,
					"domain" : 100.0,
					"outlettype" : [ "float", "", "", "bang" ],
					"presentation_rect" : [ 7.0, 23.0, 405.0, 205.0 ],
					"bordercolor" : [ 0.0, 0.0, 0.0, 1.0 ],
					"id" : "obj-6",
					"bgcolor" : [ 1.0, 1.0, 1.0, 0.0 ],
					"patching_rect" : [ 125.0, 154.0, 109.0, 105.0 ],
					"linecolor" : [ 0.007843, 0.007843, 0.007843, 1.0 ],
					"presentation" : 1,
					"pointcolor" : [ 0.0, 0.0, 0.0, 1.0 ],
					"numinlets" : 1,
					"addpoints" : [ 0.0, 1.0, 0, 46.81934, 0.588889, 0, 58.015266, 0.561111, 0, 68.702293, 0.511111, 0, 78.371498, 0.438889, 0, 87.277351, 0.311111, 0, 100.0, 0.0, 0 ]
				}

			}
, 			{
				"box" : 				{
					"maxclass" : "message",
					"text" : "dim $1 1",
					"numoutlets" : 1,
					"outlettype" : [ "" ],
					"id" : "obj-49",
					"fontname" : "Arial",
					"patching_rect" : [ 1.0, 332.0, 57.0, 18.0 ],
					"fontsize" : 12.0,
					"numinlets" : 2
				}

			}
, 			{
				"box" : 				{
					"maxclass" : "message",
					"text" : "setdomain $1",
					"numoutlets" : 1,
					"outlettype" : [ "" ],
					"id" : "obj-15",
					"fontname" : "Arial",
					"patching_rect" : [ 125.0, 102.0, 83.0, 18.0 ],
					"fontsize" : 12.0,
					"numinlets" : 2
				}

			}
, 			{
				"box" : 				{
					"maxclass" : "function",
					"varname" : "gammaRed",
					"numoutlets" : 4,
					"domain" : 100.0,
					"outlettype" : [ "float", "", "", "bang" ],
					"presentation_rect" : [ 7.0, 23.0, 405.0, 205.0 ],
					"bordercolor" : [ 1.0, 0.0, 0.0, 1.0 ],
					"id" : "obj-4",
					"background" : 1,
					"bgcolor" : [ 1.0, 0.67451, 0.67451, 0.0 ],
					"patching_rect" : [ 241.0, 153.0, 105.0, 105.0 ],
					"linecolor" : [ 1.0, 0.019608, 0.019608, 1.0 ],
					"presentation" : 1,
					"pointcolor" : [ 0.0, 0.0, 0.0, 1.0 ],
					"hidden" : 1,
					"numinlets" : 1,
					"addpoints" : [ 0.0, 0.5, 0, 100.0, 0.5, 0 ]
				}

			}
 ],
		"lines" : [ 			{
				"patchline" : 				{
					"source" : [ "obj-16", 0 ],
					"destination" : [ "obj-25", 0 ],
					"hidden" : 0,
					"midpoints" : [  ]
				}

			}
, 			{
				"patchline" : 				{
					"source" : [ "obj-33", 0 ],
					"destination" : [ "obj-16", 0 ],
					"hidden" : 0,
					"midpoints" : [  ]
				}

			}
, 			{
				"patchline" : 				{
					"source" : [ "obj-33", 0 ],
					"destination" : [ "obj-45", 0 ],
					"hidden" : 0,
					"midpoints" : [  ]
				}

			}
, 			{
				"patchline" : 				{
					"source" : [ "obj-51", 1 ],
					"destination" : [ "obj-15", 0 ],
					"hidden" : 0,
					"midpoints" : [  ]
				}

			}
, 			{
				"patchline" : 				{
					"source" : [ "obj-6", 0 ],
					"destination" : [ "obj-31", 0 ],
					"hidden" : 0,
					"midpoints" : [  ]
				}

			}
, 			{
				"patchline" : 				{
					"source" : [ "obj-15", 0 ],
					"destination" : [ "obj-39", 0 ],
					"hidden" : 0,
					"midpoints" : [  ]
				}

			}
, 			{
				"patchline" : 				{
					"source" : [ "obj-14", 0 ],
					"destination" : [ "obj-32", 0 ],
					"hidden" : 0,
					"midpoints" : [  ]
				}

			}
, 			{
				"patchline" : 				{
					"source" : [ "obj-19", 0 ],
					"destination" : [ "obj-32", 0 ],
					"hidden" : 0,
					"midpoints" : [  ]
				}

			}
, 			{
				"patchline" : 				{
					"source" : [ "obj-13", 0 ],
					"destination" : [ "obj-19", 0 ],
					"hidden" : 0,
					"midpoints" : [  ]
				}

			}
, 			{
				"patchline" : 				{
					"source" : [ "obj-5", 0 ],
					"destination" : [ "obj-9", 0 ],
					"hidden" : 0,
					"midpoints" : [  ]
				}

			}
, 			{
				"patchline" : 				{
					"source" : [ "obj-7", 0 ],
					"destination" : [ "obj-10", 0 ],
					"hidden" : 0,
					"midpoints" : [  ]
				}

			}
, 			{
				"patchline" : 				{
					"source" : [ "obj-4", 0 ],
					"destination" : [ "obj-8", 0 ],
					"hidden" : 0,
					"midpoints" : [  ]
				}

			}
, 			{
				"patchline" : 				{
					"source" : [ "obj-26", 2 ],
					"destination" : [ "obj-3", 0 ],
					"hidden" : 0,
					"midpoints" : [  ]
				}

			}
, 			{
				"patchline" : 				{
					"source" : [ "obj-26", 1 ],
					"destination" : [ "obj-28", 0 ],
					"hidden" : 0,
					"midpoints" : [ 61.5, 270.5, 58.5, 270.5 ]
				}

			}
, 			{
				"patchline" : 				{
					"source" : [ "obj-6", 0 ],
					"destination" : [ "obj-23", 0 ],
					"hidden" : 0,
					"midpoints" : [  ]
				}

			}
, 			{
				"patchline" : 				{
					"source" : [ "obj-28", 0 ],
					"destination" : [ "obj-17", 0 ],
					"hidden" : 0,
					"midpoints" : [ 58.5, 411.0, 58.5, 411.0 ]
				}

			}
, 			{
				"patchline" : 				{
					"source" : [ "obj-23", 0 ],
					"destination" : [ "obj-22", 4 ],
					"hidden" : 0,
					"midpoints" : [ 134.5, 303.0, 348.642853, 303.0 ]
				}

			}
, 			{
				"patchline" : 				{
					"source" : [ "obj-3", 0 ],
					"destination" : [ "obj-22", 1 ],
					"hidden" : 0,
					"midpoints" : [  ]
				}

			}
, 			{
				"patchline" : 				{
					"source" : [ "obj-26", 0 ],
					"destination" : [ "obj-22", 0 ],
					"hidden" : 0,
					"midpoints" : [ 46.5, 291.0, 79.5, 291.0 ]
				}

			}
, 			{
				"patchline" : 				{
					"source" : [ "obj-22", 0 ],
					"destination" : [ "obj-28", 0 ],
					"hidden" : 0,
					"midpoints" : [  ]
				}

			}
, 			{
				"patchline" : 				{
					"source" : [ "obj-2", 0 ],
					"destination" : [ "obj-32", 0 ],
					"hidden" : 0,
					"midpoints" : [  ]
				}

			}
, 			{
				"patchline" : 				{
					"source" : [ "obj-32", 0 ],
					"destination" : [ "obj-26", 0 ],
					"hidden" : 0,
					"midpoints" : [  ]
				}

			}
, 			{
				"patchline" : 				{
					"source" : [ "obj-6", 3 ],
					"destination" : [ "obj-32", 0 ],
					"hidden" : 0,
					"midpoints" : [ 224.5, 275.0, 237.0, 275.0, 237.0, 72.0, 46.5, 72.0 ]
				}

			}
, 			{
				"patchline" : 				{
					"source" : [ "obj-4", 3 ],
					"destination" : [ "obj-32", 0 ],
					"hidden" : 0,
					"midpoints" : [ 336.5, 272.0, 351.0, 272.0, 351.0, 72.0, 46.5, 72.0 ]
				}

			}
, 			{
				"patchline" : 				{
					"source" : [ "obj-5", 3 ],
					"destination" : [ "obj-32", 0 ],
					"hidden" : 0,
					"midpoints" : [ 453.5, 272.0, 468.5, 272.0, 468.5, 72.0, 46.5, 72.0 ]
				}

			}
, 			{
				"patchline" : 				{
					"source" : [ "obj-7", 3 ],
					"destination" : [ "obj-32", 0 ],
					"hidden" : 0,
					"midpoints" : [ 569.5, 272.0, 583.0, 272.0, 583.0, 72.0, 46.5, 72.0 ]
				}

			}
, 			{
				"patchline" : 				{
					"source" : [ "obj-27", 0 ],
					"destination" : [ "obj-29", 0 ],
					"hidden" : 0,
					"midpoints" : [  ]
				}

			}
, 			{
				"patchline" : 				{
					"source" : [ "obj-29", 0 ],
					"destination" : [ "obj-28", 0 ],
					"hidden" : 0,
					"midpoints" : [ 101.5, 489.0, 37.5, 489.0, 37.5, 369.0, 58.5, 369.0 ]
				}

			}
, 			{
				"patchline" : 				{
					"source" : [ "obj-11", 0 ],
					"destination" : [ "obj-1", 0 ],
					"hidden" : 0,
					"midpoints" : [  ]
				}

			}
, 			{
				"patchline" : 				{
					"source" : [ "obj-12", 0 ],
					"destination" : [ "obj-11", 0 ],
					"hidden" : 0,
					"midpoints" : [  ]
				}

			}
, 			{
				"patchline" : 				{
					"source" : [ "obj-140", 0 ],
					"destination" : [ "obj-142", 0 ],
					"hidden" : 0,
					"midpoints" : [  ]
				}

			}
, 			{
				"patchline" : 				{
					"source" : [ "obj-125", 0 ],
					"destination" : [ "obj-140", 0 ],
					"hidden" : 1,
					"midpoints" : [  ]
				}

			}
, 			{
				"patchline" : 				{
					"source" : [ "obj-127", 0 ],
					"destination" : [ "obj-140", 1 ],
					"hidden" : 1,
					"midpoints" : [  ]
				}

			}
, 			{
				"patchline" : 				{
					"source" : [ "obj-20", 0 ],
					"destination" : [ "obj-22", 5 ],
					"hidden" : 0,
					"midpoints" : [  ]
				}

			}
, 			{
				"patchline" : 				{
					"source" : [ "obj-21", 0 ],
					"destination" : [ "obj-22", 6 ],
					"hidden" : 0,
					"midpoints" : [  ]
				}

			}
, 			{
				"patchline" : 				{
					"source" : [ "obj-24", 0 ],
					"destination" : [ "obj-22", 7 ],
					"hidden" : 0,
					"midpoints" : [  ]
				}

			}
, 			{
				"patchline" : 				{
					"source" : [ "obj-25", 0 ],
					"destination" : [ "obj-32", 0 ],
					"hidden" : 0,
					"midpoints" : [ 617.5, 284.0, 700.0, 284.0, 700.0, 72.0, 46.5, 72.0 ]
				}

			}
, 			{
				"patchline" : 				{
					"source" : [ "obj-19", 1 ],
					"destination" : [ "obj-39", 1 ],
					"hidden" : 0,
					"midpoints" : [  ]
				}

			}
, 			{
				"patchline" : 				{
					"source" : [ "obj-25", 0 ],
					"destination" : [ "obj-39", 2 ],
					"hidden" : 0,
					"midpoints" : [ 617.5, 284.0, 689.333374, 284.0, 689.333374, 78.0, 367.166656, 78.0 ]
				}

			}
, 			{
				"patchline" : 				{
					"source" : [ "obj-38", 0 ],
					"destination" : [ "obj-39", 3 ],
					"hidden" : 0,
					"midpoints" : [  ]
				}

			}
, 			{
				"patchline" : 				{
					"source" : [ "obj-26", 2 ],
					"destination" : [ "obj-39", 0 ],
					"hidden" : 0,
					"midpoints" : [  ]
				}

			}
, 			{
				"patchline" : 				{
					"source" : [ "obj-39", 0 ],
					"destination" : [ "obj-6", 0 ],
					"hidden" : 0,
					"midpoints" : [  ]
				}

			}
, 			{
				"patchline" : 				{
					"source" : [ "obj-39", 1 ],
					"destination" : [ "obj-4", 0 ],
					"hidden" : 0,
					"midpoints" : [  ]
				}

			}
, 			{
				"patchline" : 				{
					"source" : [ "obj-39", 2 ],
					"destination" : [ "obj-5", 0 ],
					"hidden" : 0,
					"midpoints" : [  ]
				}

			}
, 			{
				"patchline" : 				{
					"source" : [ "obj-39", 3 ],
					"destination" : [ "obj-7", 0 ],
					"hidden" : 0,
					"midpoints" : [  ]
				}

			}
, 			{
				"patchline" : 				{
					"source" : [ "obj-41", 0 ],
					"destination" : [ "obj-38", 0 ],
					"hidden" : 0,
					"midpoints" : [ 483.5, 100.5, 483.5, 100.5 ]
				}

			}
, 			{
				"patchline" : 				{
					"source" : [ "obj-25", 0 ],
					"destination" : [ "obj-41", 0 ],
					"hidden" : 0,
					"midpoints" : [ 617.5, 284.0, 714.5, 284.0, 714.5, 66.0, 483.5, 66.0 ]
				}

			}
, 			{
				"patchline" : 				{
					"source" : [ "obj-41", 0 ],
					"destination" : [ "obj-42", 0 ],
					"hidden" : 0,
					"midpoints" : [ 483.5, 100.5, 450.5, 100.5 ]
				}

			}
, 			{
				"patchline" : 				{
					"source" : [ "obj-43", 0 ],
					"destination" : [ "obj-19", 0 ],
					"hidden" : 0,
					"midpoints" : [  ]
				}

			}
, 			{
				"patchline" : 				{
					"source" : [ "obj-49", 0 ],
					"destination" : [ "obj-28", 0 ],
					"hidden" : 0,
					"midpoints" : [  ]
				}

			}
, 			{
				"patchline" : 				{
					"source" : [ "obj-51", 1 ],
					"destination" : [ "obj-26", 1 ],
					"hidden" : 0,
					"midpoints" : [  ]
				}

			}
, 			{
				"patchline" : 				{
					"source" : [ "obj-51", 1 ],
					"destination" : [ "obj-49", 0 ],
					"hidden" : 0,
					"midpoints" : [  ]
				}

			}
, 			{
				"patchline" : 				{
					"source" : [ "obj-45", 1 ],
					"destination" : [ "obj-51", 0 ],
					"hidden" : 0,
					"midpoints" : [  ]
				}

			}
, 			{
				"patchline" : 				{
					"source" : [ "obj-51", 0 ],
					"destination" : [ "obj-26", 0 ],
					"hidden" : 0,
					"midpoints" : [  ]
				}

			}
, 			{
				"patchline" : 				{
					"source" : [ "obj-25", 0 ],
					"destination" : [ "obj-34", 0 ],
					"hidden" : 0,
					"midpoints" : [  ]
				}

			}
, 			{
				"patchline" : 				{
					"source" : [ "obj-34", 0 ],
					"destination" : [ "obj-20", 0 ],
					"hidden" : 0,
					"midpoints" : [  ]
				}

			}
, 			{
				"patchline" : 				{
					"source" : [ "obj-34", 0 ],
					"destination" : [ "obj-21", 0 ],
					"hidden" : 0,
					"midpoints" : [  ]
				}

			}
, 			{
				"patchline" : 				{
					"source" : [ "obj-34", 0 ],
					"destination" : [ "obj-24", 0 ],
					"hidden" : 0,
					"midpoints" : [  ]
				}

			}
, 			{
				"patchline" : 				{
					"source" : [ "obj-10", 0 ],
					"destination" : [ "obj-24", 1 ],
					"hidden" : 0,
					"midpoints" : [ 483.5, 297.0, 568.0, 297.0 ]
				}

			}
, 			{
				"patchline" : 				{
					"source" : [ "obj-23", 0 ],
					"destination" : [ "obj-24", 2 ],
					"hidden" : 0,
					"midpoints" : [ 134.5, 303.0, 585.5, 303.0 ]
				}

			}
, 			{
				"patchline" : 				{
					"source" : [ "obj-9", 0 ],
					"destination" : [ "obj-21", 1 ],
					"hidden" : 0,
					"midpoints" : [ 367.5, 294.0, 501.0, 294.0 ]
				}

			}
, 			{
				"patchline" : 				{
					"source" : [ "obj-8", 0 ],
					"destination" : [ "obj-20", 1 ],
					"hidden" : 0,
					"midpoints" : [ 250.5, 291.0, 433.0, 291.0 ]
				}

			}
, 			{
				"patchline" : 				{
					"source" : [ "obj-23", 0 ],
					"destination" : [ "obj-21", 2 ],
					"hidden" : 0,
					"midpoints" : [ 134.5, 303.0, 518.5, 303.0 ]
				}

			}
, 			{
				"patchline" : 				{
					"source" : [ "obj-23", 0 ],
					"destination" : [ "obj-20", 2 ],
					"hidden" : 0,
					"midpoints" : [ 134.5, 303.0, 450.5, 303.0 ]
				}

			}
, 			{
				"patchline" : 				{
					"source" : [ "obj-25", 0 ],
					"destination" : [ "obj-35", 0 ],
					"hidden" : 0,
					"midpoints" : [  ]
				}

			}
, 			{
				"patchline" : 				{
					"source" : [ "obj-35", 0 ],
					"destination" : [ "obj-38", 0 ],
					"hidden" : 0,
					"midpoints" : [ 665.5, 320.0, 730.5, 320.0, 730.5, 99.0, 483.5, 99.0 ]
				}

			}
 ]
	}

}
