{
	"patcher" : 	{
		"fileversion" : 1,
		"appversion" : 		{
			"major" : 5,
			"minor" : 1,
			"revision" : 9
		}
,
		"rect" : [ 273.0, 214.0, 858.0, 505.0 ],
		"bgcolor" : [ 0.843137, 0.603922, 0.047059, 1.0 ],
		"bglocked" : 0,
		"defrect" : [ 273.0, 214.0, 858.0, 505.0 ],
		"openrect" : [ 0.0, 0.0, 0.0, 0.0 ],
		"openinpresentation" : 1,
		"default_fontsize" : 12.0,
		"default_fontface" : 0,
		"default_fontname" : "Arial",
		"gridonopen" : 0,
		"gridsize" : [ 15.0, 15.0 ],
		"gridsnaponopen" : 0,
		"toolbarvisible" : 1,
		"boxanimatetime" : 200,
		"imprint" : 0,
		"enablehscroll" : 0,
		"enablevscroll" : 0,
		"devicewidth" : 0.0,
		"boxes" : [ 			{
				"box" : 				{
					"maxclass" : "newobj",
					"text" : "sprintf symout %smasks/",
					"patching_rect" : [ 404.0, 53.0, 143.0, 20.0 ],
					"numinlets" : 1,
					"numoutlets" : 1,
					"fontname" : "Arial",
					"outlettype" : [ "" ],
					"id" : "obj-140",
					"fontsize" : 12.0
				}

			}
, 			{
				"box" : 				{
					"maxclass" : "newobj",
					"text" : "prepend setfolderpath",
					"patching_rect" : [ 404.0, 77.0, 127.0, 20.0 ],
					"numinlets" : 1,
					"numoutlets" : 1,
					"fontname" : "Arial",
					"outlettype" : [ "" ],
					"id" : "obj-22",
					"fontsize" : 12.0
				}

			}
, 			{
				"box" : 				{
					"maxclass" : "newobj",
					"text" : "s g_resendSetupFolderPath",
					"patching_rect" : [ 252.0, 128.0, 160.0, 20.0 ],
					"numinlets" : 1,
					"numoutlets" : 0,
					"fontname" : "Arial",
					"id" : "obj-11",
					"fontsize" : 12.0
				}

			}
, 			{
				"box" : 				{
					"maxclass" : "newobj",
					"text" : "r g_setSetupFolderPath",
					"patching_rect" : [ 404.0, 30.0, 137.0, 20.0 ],
					"numinlets" : 0,
					"numoutlets" : 1,
					"fontname" : "Arial",
					"outlettype" : [ "" ],
					"id" : "obj-21",
					"fontsize" : 12.0
				}

			}
, 			{
				"box" : 				{
					"maxclass" : "message",
					"patching_rect" : [ 164.0, 208.0, 50.0, 18.0 ],
					"numinlets" : 2,
					"numoutlets" : 1,
					"fontname" : "Arial",
					"outlettype" : [ "" ],
					"id" : "obj-20",
					"fontsize" : 12.0
				}

			}
, 			{
				"box" : 				{
					"maxclass" : "message",
					"text" : "reset",
					"patching_rect" : [ 315.0, 79.0, 37.0, 18.0 ],
					"numinlets" : 2,
					"numoutlets" : 1,
					"fontname" : "Arial",
					"outlettype" : [ "" ],
					"id" : "obj-13",
					"fontsize" : 12.0
				}

			}
, 			{
				"box" : 				{
					"maxclass" : "bpatcher",
					"varname" : "RandomFileselector",
					"patching_rect" : [ 315.0, 105.0, 220.0, 19.0 ],
					"presentation" : 1,
					"numinlets" : 1,
					"args" : [ "masks", 0, 1, 200 ],
					"numoutlets" : 3,
					"outlettype" : [ "", "", "" ],
					"presentation_rect" : [ 100.0, 2.0, 219.0, 18.0 ],
					"id" : "obj-57",
					"name" : "RandomFileselector.maxpat"
				}

			}
, 			{
				"box" : 				{
					"maxclass" : "newobj",
					"text" : "sel 1 0",
					"patching_rect" : [ 425.0, 302.0, 46.0, 20.0 ],
					"numinlets" : 1,
					"numoutlets" : 3,
					"fontname" : "Arial",
					"outlettype" : [ "bang", "bang", "" ],
					"id" : "obj-16",
					"fontsize" : 12.0
				}

			}
, 			{
				"box" : 				{
					"maxclass" : "message",
					"text" : "bgcolor 0.5 0.5 .5. 1.",
					"patching_rect" : [ 542.0, 336.0, 120.0, 18.0 ],
					"numinlets" : 2,
					"numoutlets" : 1,
					"fontname" : "Arial",
					"outlettype" : [ "" ],
					"id" : "obj-17",
					"fontsize" : 12.0
				}

			}
, 			{
				"box" : 				{
					"maxclass" : "message",
					"text" : "bgcolor 0.5 0.8 .5. 1.",
					"patching_rect" : [ 419.0, 336.0, 120.0, 18.0 ],
					"numinlets" : 2,
					"numoutlets" : 1,
					"fontname" : "Arial",
					"outlettype" : [ "" ],
					"id" : "obj-18",
					"fontsize" : 12.0
				}

			}
, 			{
				"box" : 				{
					"maxclass" : "newobj",
					"text" : "prepend enable",
					"patching_rect" : [ 9.0, 236.0, 94.0, 20.0 ],
					"numinlets" : 1,
					"numoutlets" : 1,
					"fontname" : "Arial",
					"outlettype" : [ "" ],
					"id" : "obj-15",
					"fontsize" : 12.0
				}

			}
, 			{
				"box" : 				{
					"maxclass" : "outlet",
					"patching_rect" : [ 51.0, 385.0, 25.0, 25.0 ],
					"numinlets" : 1,
					"numoutlets" : 0,
					"id" : "obj-9",
					"comment" : "enable"
				}

			}
, 			{
				"box" : 				{
					"maxclass" : "inlet",
					"patching_rect" : [ 19.0, 8.0, 25.0, 25.0 ],
					"numinlets" : 0,
					"numoutlets" : 1,
					"outlettype" : [ "" ],
					"id" : "obj-7",
					"comment" : ""
				}

			}
, 			{
				"box" : 				{
					"maxclass" : "umenu",
					"varname" : "operation[1]",
					"patching_rect" : [ 459.0, 258.0, 100.0, 17.0 ],
					"numinlets" : 1,
					"types" : [  ],
					"items" : [ "pass", ",", "mult", ",", "div", ",", "add", ",", "sub", ",", "mod", ",", "min", ",", "max", ",", "abs", ",", "avg", ",", "absdiff" ],
					"numoutlets" : 3,
					"fontname" : "Arial",
					"outlettype" : [ "int", "", "" ],
					"id" : "obj-14",
					"labelclick" : 1,
					"fontsize" : 9.0
				}

			}
, 			{
				"box" : 				{
					"maxclass" : "message",
					"text" : "reload mask",
					"patching_rect" : [ 66.0, 14.0, 65.0, 16.0 ],
					"presentation" : 1,
					"numinlets" : 2,
					"numoutlets" : 1,
					"fontname" : "Arial",
					"outlettype" : [ "" ],
					"presentation_rect" : [ 29.0, 3.0, 65.0, 16.0 ],
					"id" : "obj-12",
					"fontsize" : 10.0
				}

			}
, 			{
				"box" : 				{
					"maxclass" : "newobj",
					"text" : "gate 1",
					"patching_rect" : [ 291.0, 335.0, 44.0, 20.0 ],
					"numinlets" : 2,
					"numoutlets" : 1,
					"fontname" : "Arial",
					"outlettype" : [ "" ],
					"id" : "obj-10",
					"fontsize" : 12.0
				}

			}
, 			{
				"box" : 				{
					"maxclass" : "newobj",
					"text" : "select 1",
					"patching_rect" : [ 153.0, 140.0, 52.0, 20.0 ],
					"numinlets" : 2,
					"numoutlets" : 2,
					"fontname" : "Arial",
					"outlettype" : [ "bang", "" ],
					"id" : "obj-6",
					"fontsize" : 12.0
				}

			}
, 			{
				"box" : 				{
					"maxclass" : "message",
					"text" : "pass",
					"patching_rect" : [ 230.0, 335.0, 36.0, 18.0 ],
					"numinlets" : 2,
					"numoutlets" : 1,
					"fontname" : "Arial",
					"outlettype" : [ "" ],
					"id" : "obj-4",
					"fontsize" : 12.0
				}

			}
, 			{
				"box" : 				{
					"maxclass" : "message",
					"text" : "dispose",
					"patching_rect" : [ 96.0, 317.0, 52.0, 18.0 ],
					"numinlets" : 2,
					"numoutlets" : 1,
					"fontname" : "Arial",
					"outlettype" : [ "" ],
					"id" : "obj-3",
					"fontsize" : 12.0
				}

			}
, 			{
				"box" : 				{
					"maxclass" : "newobj",
					"text" : "select 0",
					"patching_rect" : [ 108.0, 259.0, 52.0, 20.0 ],
					"numinlets" : 2,
					"numoutlets" : 2,
					"fontname" : "Arial",
					"outlettype" : [ "bang", "" ],
					"id" : "obj-2",
					"fontsize" : 12.0
				}

			}
, 			{
				"box" : 				{
					"maxclass" : "message",
					"text" : "0",
					"patching_rect" : [ 19.0, 54.0, 50.0, 18.0 ],
					"numinlets" : 2,
					"numoutlets" : 1,
					"fontname" : "Arial",
					"outlettype" : [ "" ],
					"id" : "obj-8",
					"fontsize" : 12.0
				}

			}
, 			{
				"box" : 				{
					"maxclass" : "newobj",
					"text" : "gate 1",
					"patching_rect" : [ 175.0, 307.0, 44.0, 20.0 ],
					"numinlets" : 2,
					"numoutlets" : 1,
					"fontname" : "Arial",
					"outlettype" : [ "" ],
					"id" : "obj-63",
					"fontsize" : 12.0
				}

			}
, 			{
				"box" : 				{
					"maxclass" : "toggle",
					"varname" : "maskEnable",
					"patching_rect" : [ 80.0, 52.0, 20.0, 20.0 ],
					"presentation" : 1,
					"numinlets" : 1,
					"numoutlets" : 1,
					"outlettype" : [ "int" ],
					"presentation_rect" : [ 1.0, 0.0, 20.0, 20.0 ],
					"id" : "obj-272"
				}

			}
, 			{
				"box" : 				{
					"maxclass" : "outlet",
					"patching_rect" : [ 282.0, 386.0, 25.0, 25.0 ],
					"numinlets" : 1,
					"numoutlets" : 0,
					"id" : "obj-5",
					"comment" : "op"
				}

			}
, 			{
				"box" : 				{
					"maxclass" : "outlet",
					"patching_rect" : [ 152.0, 385.0, 25.0, 25.0 ],
					"numinlets" : 1,
					"numoutlets" : 0,
					"id" : "obj-1",
					"comment" : "path"
				}

			}
, 			{
				"box" : 				{
					"maxclass" : "newobj",
					"varname" : "u973006427",
					"text" : "autopattr",
					"patching_rect" : [ 405.0, 7.0, 59.5, 20.0 ],
					"numinlets" : 1,
					"numoutlets" : 4,
					"fontname" : "Arial",
					"outlettype" : [ "", "", "", "" ],
					"id" : "obj-55",
					"fontsize" : 12.0,
					"restore" : 					{
						"maskEnable" : [ 0 ],
						"objectFaceSubDivision" : [ 0 ],
						"operation" : [ 0 ],
						"operation[1]" : [ 0 ]
					}

				}

			}
, 			{
				"box" : 				{
					"maxclass" : "newobj",
					"text" : "prepend set",
					"patching_rect" : [ 331.0, 280.0, 74.0, 20.0 ],
					"numinlets" : 1,
					"numoutlets" : 1,
					"fontname" : "Arial",
					"outlettype" : [ "" ],
					"id" : "obj-58",
					"fontsize" : 12.0
				}

			}
, 			{
				"box" : 				{
					"maxclass" : "number",
					"varname" : "objectFaceSubDivision",
					"patching_rect" : [ 350.0, 235.0, 50.0, 20.0 ],
					"numinlets" : 1,
					"numoutlets" : 2,
					"fontname" : "Arial",
					"outlettype" : [ "int", "bang" ],
					"id" : "obj-61",
					"fontsize" : 12.0
				}

			}
, 			{
				"box" : 				{
					"maxclass" : "newobj",
					"text" : "prepend read",
					"patching_rect" : [ 202.0, 274.0, 82.0, 20.0 ],
					"numinlets" : 1,
					"numoutlets" : 1,
					"fontname" : "Arial",
					"outlettype" : [ "" ],
					"id" : "obj-40",
					"fontsize" : 12.0
				}

			}
, 			{
				"box" : 				{
					"maxclass" : "message",
					"text" : "clear",
					"patching_rect" : [ 315.0, 57.0, 30.0, 15.0 ],
					"presentation" : 1,
					"numinlets" : 2,
					"numoutlets" : 1,
					"fontname" : "Arial",
					"outlettype" : [ "" ],
					"presentation_rect" : [ 324.0, 4.0, 30.0, 15.0 ],
					"id" : "obj-56",
					"fontsize" : 9.0
				}

			}
, 			{
				"box" : 				{
					"maxclass" : "umenu",
					"varname" : "operation",
					"patching_rect" : [ 350.0, 258.0, 100.0, 17.0 ],
					"numinlets" : 1,
					"types" : [  ],
					"items" : "mult",
					"numoutlets" : 3,
					"fontname" : "Arial",
					"outlettype" : [ "int", "", "" ],
					"id" : "obj-62",
					"labelclick" : 1,
					"fontsize" : 9.0
				}

			}
, 			{
				"box" : 				{
					"maxclass" : "panel",
					"patching_rect" : [ 419.0, 366.0, 267.0, 49.0 ],
					"presentation" : 1,
					"numinlets" : 1,
					"numoutlets" : 0,
					"bgcolor" : [ 0.5, 0.5, 0.5, 1.0 ],
					"presentation_rect" : [ 25.0, 0.0, 332.0, 22.0 ],
					"id" : "obj-19"
				}

			}
 ],
		"lines" : [ 			{
				"patchline" : 				{
					"source" : [ "obj-22", 0 ],
					"destination" : [ "obj-57", 0 ],
					"hidden" : 0,
					"midpoints" : [  ]
				}

			}
, 			{
				"patchline" : 				{
					"source" : [ "obj-13", 0 ],
					"destination" : [ "obj-57", 0 ],
					"hidden" : 0,
					"midpoints" : [  ]
				}

			}
, 			{
				"patchline" : 				{
					"source" : [ "obj-57", 2 ],
					"destination" : [ "obj-20", 1 ],
					"hidden" : 0,
					"midpoints" : [  ]
				}

			}
, 			{
				"patchline" : 				{
					"source" : [ "obj-57", 2 ],
					"destination" : [ "obj-40", 0 ],
					"hidden" : 0,
					"midpoints" : [  ]
				}

			}
, 			{
				"patchline" : 				{
					"source" : [ "obj-140", 0 ],
					"destination" : [ "obj-22", 0 ],
					"hidden" : 0,
					"midpoints" : [  ]
				}

			}
, 			{
				"patchline" : 				{
					"source" : [ "obj-21", 0 ],
					"destination" : [ "obj-140", 0 ],
					"hidden" : 0,
					"midpoints" : [  ]
				}

			}
, 			{
				"patchline" : 				{
					"source" : [ "obj-56", 0 ],
					"destination" : [ "obj-11", 0 ],
					"hidden" : 0,
					"midpoints" : [  ]
				}

			}
, 			{
				"patchline" : 				{
					"source" : [ "obj-272", 0 ],
					"destination" : [ "obj-16", 0 ],
					"hidden" : 0,
					"midpoints" : [  ]
				}

			}
, 			{
				"patchline" : 				{
					"source" : [ "obj-18", 0 ],
					"destination" : [ "obj-19", 0 ],
					"hidden" : 0,
					"midpoints" : [  ]
				}

			}
, 			{
				"patchline" : 				{
					"source" : [ "obj-17", 0 ],
					"destination" : [ "obj-19", 0 ],
					"hidden" : 0,
					"midpoints" : [  ]
				}

			}
, 			{
				"patchline" : 				{
					"source" : [ "obj-16", 0 ],
					"destination" : [ "obj-18", 0 ],
					"hidden" : 0,
					"midpoints" : [  ]
				}

			}
, 			{
				"patchline" : 				{
					"source" : [ "obj-16", 1 ],
					"destination" : [ "obj-17", 0 ],
					"hidden" : 0,
					"midpoints" : [  ]
				}

			}
, 			{
				"patchline" : 				{
					"source" : [ "obj-15", 0 ],
					"destination" : [ "obj-9", 0 ],
					"hidden" : 0,
					"midpoints" : [  ]
				}

			}
, 			{
				"patchline" : 				{
					"source" : [ "obj-272", 0 ],
					"destination" : [ "obj-15", 0 ],
					"hidden" : 0,
					"midpoints" : [  ]
				}

			}
, 			{
				"patchline" : 				{
					"source" : [ "obj-61", 0 ],
					"destination" : [ "obj-62", 0 ],
					"hidden" : 0,
					"midpoints" : [  ]
				}

			}
, 			{
				"patchline" : 				{
					"source" : [ "obj-62", 0 ],
					"destination" : [ "obj-58", 0 ],
					"hidden" : 0,
					"midpoints" : [  ]
				}

			}
, 			{
				"patchline" : 				{
					"source" : [ "obj-58", 0 ],
					"destination" : [ "obj-61", 0 ],
					"hidden" : 0,
					"midpoints" : [ 340.5, 305.0, 327.5, 305.0, 327.5, 230.0, 359.5, 230.0 ]
				}

			}
, 			{
				"patchline" : 				{
					"source" : [ "obj-272", 0 ],
					"destination" : [ "obj-63", 0 ],
					"hidden" : 0,
					"midpoints" : [  ]
				}

			}
, 			{
				"patchline" : 				{
					"source" : [ "obj-272", 0 ],
					"destination" : [ "obj-8", 1 ],
					"hidden" : 0,
					"midpoints" : [ 89.5, 87.0, 14.5, 87.0, 14.5, 44.0, 59.5, 44.0 ]
				}

			}
, 			{
				"patchline" : 				{
					"source" : [ "obj-8", 0 ],
					"destination" : [ "obj-272", 0 ],
					"hidden" : 0,
					"midpoints" : [ 28.5, 81.0, 74.0, 81.0, 74.0, 42.0, 89.5, 42.0 ]
				}

			}
, 			{
				"patchline" : 				{
					"source" : [ "obj-40", 0 ],
					"destination" : [ "obj-63", 1 ],
					"hidden" : 0,
					"midpoints" : [  ]
				}

			}
, 			{
				"patchline" : 				{
					"source" : [ "obj-63", 0 ],
					"destination" : [ "obj-1", 0 ],
					"hidden" : 0,
					"midpoints" : [  ]
				}

			}
, 			{
				"patchline" : 				{
					"source" : [ "obj-272", 0 ],
					"destination" : [ "obj-2", 0 ],
					"hidden" : 0,
					"midpoints" : [  ]
				}

			}
, 			{
				"patchline" : 				{
					"source" : [ "obj-2", 0 ],
					"destination" : [ "obj-3", 0 ],
					"hidden" : 0,
					"midpoints" : [  ]
				}

			}
, 			{
				"patchline" : 				{
					"source" : [ "obj-3", 0 ],
					"destination" : [ "obj-1", 0 ],
					"hidden" : 0,
					"midpoints" : [  ]
				}

			}
, 			{
				"patchline" : 				{
					"source" : [ "obj-2", 0 ],
					"destination" : [ "obj-4", 0 ],
					"hidden" : 0,
					"midpoints" : [  ]
				}

			}
, 			{
				"patchline" : 				{
					"source" : [ "obj-4", 0 ],
					"destination" : [ "obj-5", 0 ],
					"hidden" : 0,
					"midpoints" : [  ]
				}

			}
, 			{
				"patchline" : 				{
					"source" : [ "obj-272", 0 ],
					"destination" : [ "obj-6", 0 ],
					"hidden" : 0,
					"midpoints" : [  ]
				}

			}
, 			{
				"patchline" : 				{
					"source" : [ "obj-6", 0 ],
					"destination" : [ "obj-61", 0 ],
					"hidden" : 0,
					"midpoints" : [  ]
				}

			}
, 			{
				"patchline" : 				{
					"source" : [ "obj-62", 1 ],
					"destination" : [ "obj-10", 1 ],
					"hidden" : 0,
					"midpoints" : [  ]
				}

			}
, 			{
				"patchline" : 				{
					"source" : [ "obj-272", 0 ],
					"destination" : [ "obj-10", 0 ],
					"hidden" : 0,
					"midpoints" : [  ]
				}

			}
, 			{
				"patchline" : 				{
					"source" : [ "obj-10", 0 ],
					"destination" : [ "obj-5", 0 ],
					"hidden" : 0,
					"midpoints" : [  ]
				}

			}
, 			{
				"patchline" : 				{
					"source" : [ "obj-7", 0 ],
					"destination" : [ "obj-8", 0 ],
					"hidden" : 0,
					"midpoints" : [  ]
				}

			}
, 			{
				"patchline" : 				{
					"source" : [ "obj-12", 0 ],
					"destination" : [ "obj-8", 0 ],
					"hidden" : 0,
					"midpoints" : [  ]
				}

			}
, 			{
				"patchline" : 				{
					"source" : [ "obj-56", 0 ],
					"destination" : [ "obj-13", 0 ],
					"hidden" : 0,
					"midpoints" : [  ]
				}

			}
, 			{
				"patchline" : 				{
					"source" : [ "obj-20", 0 ],
					"destination" : [ "obj-40", 0 ],
					"hidden" : 0,
					"midpoints" : [  ]
				}

			}
, 			{
				"patchline" : 				{
					"source" : [ "obj-6", 0 ],
					"destination" : [ "obj-20", 0 ],
					"hidden" : 0,
					"midpoints" : [  ]
				}

			}
 ]
	}

}
