{
	"patcher" : 	{
		"fileversion" : 1,
		"appversion" : 		{
			"major" : 6,
			"minor" : 0,
			"revision" : 5
		}
,
		"rect" : [ 122.0, 173.0, 1298.0, 504.0 ],
		"bglocked" : 0,
		"openinpresentation" : 1,
		"default_fontsize" : 12.0,
		"default_fontface" : 0,
		"default_fontname" : "Arial",
		"gridonopen" : 0,
		"gridsize" : [ 15.0, 15.0 ],
		"gridsnaponopen" : 0,
		"statusbarvisible" : 2,
		"toolbarvisible" : 1,
		"boxanimatetime" : 200,
		"imprint" : 0,
		"enablehscroll" : 1,
		"enablevscroll" : 1,
		"devicewidth" : 0.0,
		"description" : "",
		"digest" : "",
		"tags" : "",
		"boxes" : [ 			{
				"box" : 				{
					"comment" : "color se",
					"id" : "obj-18",
					"maxclass" : "outlet",
					"numinlets" : 1,
					"numoutlets" : 0,
					"patching_rect" : [ 1600.0, 492.0, 25.0, 25.0 ]
				}

			}
, 			{
				"box" : 				{
					"comment" : "color tex04",
					"id" : "obj-17",
					"maxclass" : "outlet",
					"numinlets" : 1,
					"numoutlets" : 0,
					"patching_rect" : [ 1574.0, 492.0, 25.0, 25.0 ]
				}

			}
, 			{
				"box" : 				{
					"comment" : "color tex03",
					"id" : "obj-15",
					"maxclass" : "outlet",
					"numinlets" : 1,
					"numoutlets" : 0,
					"patching_rect" : [ 1173.0, 492.0, 25.0, 25.0 ]
				}

			}
, 			{
				"box" : 				{
					"comment" : "color tex02",
					"id" : "obj-13",
					"maxclass" : "outlet",
					"numinlets" : 1,
					"numoutlets" : 0,
					"patching_rect" : [ 774.0, 494.0, 25.0, 25.0 ]
				}

			}
, 			{
				"box" : 				{
					"comment" : "color tex01",
					"id" : "obj-10",
					"maxclass" : "outlet",
					"numinlets" : 1,
					"numoutlets" : 0,
					"patching_rect" : [ 373.0, 501.0, 25.0, 25.0 ]
				}

			}
, 			{
				"box" : 				{
					"args" : [ "softEdgeTex04", 0 ],
					"id" : "obj-7",
					"maxclass" : "bpatcher",
					"name" : "GUISoftEdge.maxpat",
					"numinlets" : 1,
					"numoutlets" : 1,
					"outlettype" : [ "" ],
					"patching_rect" : [ 1600.0, 88.0, 393.0, 396.0 ],
					"presentation" : 1,
					"presentation_rect" : [ 1600.0, 0.0, 393.0, 388.0 ],
					"varname" : "SoftEdge"
				}

			}
, 			{
				"box" : 				{
					"fontname" : "Arial",
					"fontsize" : 12.0,
					"id" : "obj-12",
					"maxclass" : "newobj",
					"numinlets" : 1,
					"numoutlets" : 2,
					"outlettype" : [ "bang", "bang" ],
					"patching_rect" : [ 161.0, 33.0, 34.0, 20.0 ],
					"text" : "t b b"
				}

			}
, 			{
				"box" : 				{
					"fontname" : "Arial",
					"fontsize" : 12.0,
					"id" : "obj-14",
					"maxclass" : "newobj",
					"numinlets" : 0,
					"numoutlets" : 1,
					"outlettype" : [ "" ],
					"patching_rect" : [ 161.0, 5.0, 137.0, 20.0 ],
					"text" : "r refresh_setupTextures"
				}

			}
, 			{
				"box" : 				{
					"fontname" : "Arial",
					"fontsize" : 12.0,
					"id" : "obj-11",
					"maxclass" : "newobj",
					"numinlets" : 1,
					"numoutlets" : 0,
					"patching_rect" : [ 0.0, 488.0, 89.0, 20.0 ],
					"text" : "s setTexture01"
				}

			}
, 			{
				"box" : 				{
					"fontname" : "Arial",
					"fontsize" : 12.0,
					"id" : "obj-9",
					"maxclass" : "newobj",
					"numinlets" : 1,
					"numoutlets" : 2,
					"outlettype" : [ "", "" ],
					"patching_rect" : [ 1364.0, 535.0, 69.0, 20.0 ],
					"save" : [ "#N", "thispatcher", ";", "#Q", "end", ";" ],
					"text" : "thispatcher"
				}

			}
, 			{
				"box" : 				{
					"comment" : "",
					"id" : "obj-8",
					"maxclass" : "inlet",
					"numinlets" : 0,
					"numoutlets" : 1,
					"outlettype" : [ "" ],
					"patching_rect" : [ 1364.0, 505.0, 25.0, 25.0 ]
				}

			}
, 			{
				"box" : 				{
					"fontname" : "Arial",
					"fontsize" : 12.0,
					"id" : "obj-6",
					"maxclass" : "newobj",
					"numinlets" : 1,
					"numoutlets" : 0,
					"patching_rect" : [ 1200.0, 492.0, 89.0, 20.0 ],
					"text" : "s setTexture04"
				}

			}
, 			{
				"box" : 				{
					"fontname" : "Arial",
					"fontsize" : 12.0,
					"id" : "obj-5",
					"maxclass" : "newobj",
					"numinlets" : 1,
					"numoutlets" : 0,
					"patching_rect" : [ 800.0, 492.0, 89.0, 20.0 ],
					"text" : "s setTexture03"
				}

			}
, 			{
				"box" : 				{
					"fontname" : "Arial",
					"fontsize" : 12.0,
					"id" : "obj-4",
					"maxclass" : "newobj",
					"numinlets" : 1,
					"numoutlets" : 0,
					"patching_rect" : [ 400.0, 492.0, 89.0, 20.0 ],
					"text" : "s setTexture02"
				}

			}
, 			{
				"box" : 				{
					"args" : [ "softEdgeTex04", 0, "texture04" ],
					"id" : "obj-2",
					"maxclass" : "bpatcher",
					"name" : "GUITextureLink.maxpat",
					"numinlets" : 1,
					"numoutlets" : 2,
					"outlettype" : [ "", "" ],
					"patching_rect" : [ 1200.0, 89.0, 393.0, 396.0 ],
					"presentation" : 1,
					"presentation_rect" : [ 1200.0, 0.0, 393.0, 388.0 ],
					"varname" : "Texture04"
				}

			}
, 			{
				"box" : 				{
					"args" : [ "softEdgeTex03", -71, "texture03" ],
					"id" : "obj-3",
					"maxclass" : "bpatcher",
					"name" : "GUITextureLink.maxpat",
					"numinlets" : 1,
					"numoutlets" : 2,
					"outlettype" : [ "", "" ],
					"patching_rect" : [ 800.0, 89.0, 392.0, 395.0 ],
					"presentation" : 1,
					"presentation_rect" : [ 800.0, 0.0, 392.0, 387.0 ],
					"varname" : "Texture03"
				}

			}
, 			{
				"box" : 				{
					"args" : [ "softEdgeTex02", -142, "texture02" ],
					"id" : "obj-1",
					"maxclass" : "bpatcher",
					"name" : "GUITextureLink.maxpat",
					"numinlets" : 1,
					"numoutlets" : 2,
					"outlettype" : [ "", "" ],
					"patching_rect" : [ 400.0, 89.0, 393.0, 396.0 ],
					"presentation" : 1,
					"presentation_rect" : [ 400.0, 0.0, 393.0, 388.0 ],
					"varname" : "Texture02"
				}

			}
, 			{
				"box" : 				{
					"args" : [ "softEdgeTex01", -213, "texture01" ],
					"id" : "obj-16",
					"maxclass" : "bpatcher",
					"name" : "GUITextureLink.maxpat",
					"numinlets" : 1,
					"numoutlets" : 2,
					"outlettype" : [ "", "" ],
					"patching_rect" : [ 0.0, 89.0, 392.0, 395.0 ],
					"presentation" : 1,
					"presentation_rect" : [ 0.0, 0.0, 392.0, 387.0 ],
					"varname" : "Texture01"
				}

			}
 ],
		"lines" : [ 			{
				"patchline" : 				{
					"destination" : [ "obj-13", 0 ],
					"disabled" : 0,
					"hidden" : 0,
					"source" : [ "obj-1", 1 ]
				}

			}
, 			{
				"patchline" : 				{
					"destination" : [ "obj-4", 0 ],
					"disabled" : 0,
					"hidden" : 0,
					"source" : [ "obj-1", 0 ]
				}

			}
, 			{
				"patchline" : 				{
					"destination" : [ "obj-1", 0 ],
					"disabled" : 0,
					"hidden" : 0,
					"source" : [ "obj-12", 1 ]
				}

			}
, 			{
				"patchline" : 				{
					"destination" : [ "obj-16", 0 ],
					"disabled" : 0,
					"hidden" : 0,
					"source" : [ "obj-12", 1 ]
				}

			}
, 			{
				"patchline" : 				{
					"destination" : [ "obj-2", 0 ],
					"disabled" : 0,
					"hidden" : 0,
					"source" : [ "obj-12", 1 ]
				}

			}
, 			{
				"patchline" : 				{
					"destination" : [ "obj-3", 0 ],
					"disabled" : 0,
					"hidden" : 0,
					"source" : [ "obj-12", 1 ]
				}

			}
, 			{
				"patchline" : 				{
					"destination" : [ "obj-7", 0 ],
					"disabled" : 0,
					"hidden" : 0,
					"source" : [ "obj-12", 0 ]
				}

			}
, 			{
				"patchline" : 				{
					"destination" : [ "obj-12", 0 ],
					"disabled" : 0,
					"hidden" : 0,
					"source" : [ "obj-14", 0 ]
				}

			}
, 			{
				"patchline" : 				{
					"destination" : [ "obj-10", 0 ],
					"disabled" : 0,
					"hidden" : 0,
					"source" : [ "obj-16", 1 ]
				}

			}
, 			{
				"patchline" : 				{
					"destination" : [ "obj-11", 0 ],
					"disabled" : 0,
					"hidden" : 0,
					"source" : [ "obj-16", 0 ]
				}

			}
, 			{
				"patchline" : 				{
					"destination" : [ "obj-17", 0 ],
					"disabled" : 0,
					"hidden" : 0,
					"source" : [ "obj-2", 1 ]
				}

			}
, 			{
				"patchline" : 				{
					"destination" : [ "obj-6", 0 ],
					"disabled" : 0,
					"hidden" : 0,
					"source" : [ "obj-2", 0 ]
				}

			}
, 			{
				"patchline" : 				{
					"destination" : [ "obj-15", 0 ],
					"disabled" : 0,
					"hidden" : 0,
					"source" : [ "obj-3", 1 ]
				}

			}
, 			{
				"patchline" : 				{
					"destination" : [ "obj-5", 0 ],
					"disabled" : 0,
					"hidden" : 0,
					"source" : [ "obj-3", 0 ]
				}

			}
, 			{
				"patchline" : 				{
					"destination" : [ "obj-18", 0 ],
					"disabled" : 0,
					"hidden" : 0,
					"source" : [ "obj-7", 0 ]
				}

			}
, 			{
				"patchline" : 				{
					"destination" : [ "obj-9", 0 ],
					"disabled" : 0,
					"hidden" : 0,
					"source" : [ "obj-8", 0 ]
				}

			}
 ],
		"dependency_cache" : [ 			{
				"name" : "GUITextureLink.maxpat",
				"bootpath" : "/Users/maybites/Arbeiten/01_projekte/mayBites/110221_MeshWarpServer/01_dev/source/lib/max",
				"patcherrelativepath" : "",
				"type" : "JSON",
				"implicit" : 1
			}
, 			{
				"name" : "GUITextureLinkEnable.maxpat",
				"bootpath" : "/Users/maybites/Arbeiten/01_projekte/mayBites/110221_MeshWarpServer/01_dev/source/lib/max",
				"patcherrelativepath" : "",
				"type" : "JSON",
				"implicit" : 1
			}
, 			{
				"name" : "GUITextureLinkBrCoSa.maxpat",
				"bootpath" : "/Users/maybites/Arbeiten/01_projekte/mayBites/110221_MeshWarpServer/01_dev/source/lib/max",
				"patcherrelativepath" : "",
				"type" : "JSON",
				"implicit" : 1
			}
, 			{
				"name" : "GUITextureLinkMask.maxpat",
				"bootpath" : "/Users/maybites/Arbeiten/01_projekte/mayBites/110221_MeshWarpServer/01_dev/source/lib/max",
				"patcherrelativepath" : "",
				"type" : "JSON",
				"implicit" : 1
			}
, 			{
				"name" : "RandomFileselector.maxpat",
				"bootpath" : "/Users/maybites/Arbeiten/01_projekte/mayBites/110221_MeshWarpServer/01_dev/source/lib/max",
				"patcherrelativepath" : "",
				"type" : "JSON",
				"implicit" : 1
			}
, 			{
				"name" : "RandomFileselector.js",
				"bootpath" : "/Users/maybites/Arbeiten/01_projekte/mayBites/110221_MeshWarpServer/01_dev/source/lib/max",
				"patcherrelativepath" : "",
				"type" : "TEXT",
				"implicit" : 1
			}
, 			{
				"name" : "GUITextureLinkResample.maxpat",
				"bootpath" : "/Users/maybites/Arbeiten/01_projekte/mayBites/110221_MeshWarpServer/01_dev/source/lib/max",
				"patcherrelativepath" : "",
				"type" : "JSON",
				"implicit" : 1
			}
, 			{
				"name" : "GUITextureLinkSoftEdge.maxpat",
				"bootpath" : "/Users/maybites/Arbeiten/01_projekte/mayBites/110221_MeshWarpServer/01_dev/source/lib/max",
				"patcherrelativepath" : "",
				"type" : "JSON",
				"implicit" : 1
			}
, 			{
				"name" : "GUITextureLinkSoftEdgeParam.maxpat",
				"bootpath" : "/Users/maybites/Arbeiten/01_projekte/mayBites/110221_MeshWarpServer/01_dev/source/lib/max",
				"patcherrelativepath" : "",
				"type" : "JSON",
				"implicit" : 1
			}
, 			{
				"name" : "softEdgeParamsSplitter.maxpat",
				"bootpath" : "/Users/maybites/Arbeiten/01_projekte/mayBites/110221_MeshWarpServer/01_dev/source/lib/max",
				"patcherrelativepath" : "",
				"type" : "JSON",
				"implicit" : 1
			}
, 			{
				"name" : "GUISoftEdge.maxpat",
				"bootpath" : "/Users/maybites/Arbeiten/01_projekte/mayBites/110221_MeshWarpServer/01_dev/source/lib/max",
				"patcherrelativepath" : "",
				"type" : "JSON",
				"implicit" : 1
			}
, 			{
				"name" : "GUISoftEdgeParam.maxpat",
				"bootpath" : "/Users/maybites/Arbeiten/01_projekte/mayBites/110221_MeshWarpServer/01_dev/source/lib/max",
				"patcherrelativepath" : "",
				"type" : "JSON",
				"implicit" : 1
			}
, 			{
				"name" : "GUISoftEdgeMeshConfig.maxpat",
				"bootpath" : "/Users/maybites/Arbeiten/01_projekte/mayBites/110221_MeshWarpServer/01_dev/source/lib/max",
				"patcherrelativepath" : "",
				"type" : "JSON",
				"implicit" : 1
			}
 ]
	}

}
